<svg width="205" height="54" viewBox="0 0 205 54" fill="none" xmlns="http://www.w3.org/2000/svg">
<g clip-path="url(#clip0_9008_4173)">
<path d="M42.7436 32.4518H10.3127V25.847L4.91211 31.2475V42.6643C4.91211 42.9613 5.15514 43.2043 5.45217 43.2043H9.77268C10.0697 43.2043 10.3127 42.9613 10.3127 42.6643V38.3924C10.3127 38.0954 10.5558 37.8524 10.8528 37.8524H42.2035C42.5005 37.8524 42.7436 38.0954 42.7436 38.3924V42.6643C42.7436 42.9613 42.9866 43.2043 43.2836 43.2043H47.6041C47.9012 43.2043 48.1442 42.9613 48.1442 42.6643V31.2745L42.7436 25.874V32.4518Z" fill="black"/>
<path d="M52.8723 26.1251L26.9034 0.156625C26.7954 0.0486145 26.655 -0.0026906 26.5145 9.66525e-06C26.3741 9.66525e-06 26.2337 0.0513148 26.1257 0.156625L0.159433 26.1251C-0.0511913 26.3357 -0.0511913 26.6787 0.159433 26.8893L3.21349 29.9433C3.42412 30.1539 3.76706 30.1539 3.97768 29.9433L26.5145 7.40685L49.0514 29.9433C49.262 30.1539 49.6049 30.1539 49.8156 29.9433L52.8696 26.8893C53.0803 26.6787 53.0803 26.3357 52.8696 26.1251H52.8723Z" fill="#EB7F1E"/>
<path d="M92.4564 11.1413V42.8533C92.4564 43.018 92.3213 43.153 92.1566 43.153H86.756C86.5913 43.153 86.4563 43.018 86.4563 42.8533V29.306H69.7467V42.8533C69.7467 43.018 69.6117 43.153 69.4469 43.153H64.0463C63.8816 43.153 63.7466 43.018 63.7466 42.8533V11.1413C63.7466 10.9766 63.8816 10.8416 64.0463 10.8416H69.4469C69.6117 10.8416 69.7467 10.9766 69.7467 11.1413V24.1809H86.4563V11.1413C86.4563 10.9766 86.5913 10.8416 86.756 10.8416H92.1566C92.3213 10.8416 92.4564 10.9766 92.4564 11.1413Z" fill="#EB7F1E"/>
<path d="M98.5508 30.829C98.5508 23.4438 104.089 18.2268 111.661 18.2268C119.233 18.2268 124.817 23.4438 124.817 30.829C124.817 38.2142 119.324 43.4771 111.661 43.4771C103.997 43.4771 98.5508 38.2142 98.5508 30.829ZM119 30.829C119 26.1197 115.863 23.1197 111.661 23.1197C107.459 23.1197 104.367 26.1197 104.367 30.829C104.367 35.5383 107.505 38.5383 111.661 38.5383C115.817 38.5383 119 35.5383 119 30.829Z" fill="#EB7F1E"/>
<path d="M156.529 30.829C156.529 38.4924 151.221 43.4771 144.019 43.4771C140.881 43.4771 138.111 42.4159 136.126 40.153V53.6976C136.126 53.8623 135.991 53.9973 135.826 53.9973H130.658C130.493 53.9973 130.358 53.8623 130.358 53.6976V18.8047C130.358 18.64 130.493 18.505 130.658 18.505H135.551C135.715 18.505 135.85 18.64 135.85 18.8047V21.7345C137.789 19.3799 140.652 18.2268 144.022 18.2268C151.223 18.2268 156.532 23.2115 156.532 30.829H156.529ZM150.667 30.829C150.667 26.1197 147.529 23.1197 143.373 23.1197C139.218 23.1197 136.034 26.1197 136.034 30.829C136.034 35.5383 139.22 38.5383 143.373 38.5383C147.527 38.5383 150.667 35.5383 150.667 30.829Z" fill="#EB7F1E"/>
<path d="M184.826 32.676H165.762C166.453 36.2754 169.456 38.5842 173.747 38.5842C176.398 38.5842 178.499 37.7795 180.214 36.1323C180.338 36.0135 180.538 36.0162 180.651 36.1485L183.362 39.2646C183.462 39.378 183.462 39.5482 183.362 39.6616C181.143 42.1647 177.748 43.4798 173.609 43.4798C165.346 43.4798 159.994 38.1737 159.991 30.8344C159.991 23.9271 165.467 18.3915 172.372 18.2349C179.758 18.0648 185.193 23.1359 185.193 30.9721C185.193 31.3582 185.161 31.9091 185.123 32.4032C185.112 32.5599 184.98 32.6814 184.823 32.6814L184.826 32.676ZM165.716 28.8443H179.704C179.242 25.2907 176.517 22.8443 172.734 22.8443C168.951 22.8443 166.272 25.2448 165.719 28.8443H165.716Z" fill="#EB7F1E"/>
<path d="M205 18.532V23.3682C205 23.5518 204.835 23.6922 204.654 23.6652C204.295 23.6112 203.979 23.5842 203.661 23.5842C199.275 23.5842 196.505 26.1683 196.505 31.2016V42.856C196.505 43.0207 196.37 43.1557 196.205 43.1557H191.037C190.872 43.1557 190.737 43.0207 190.737 42.856V18.8074C190.737 18.6427 190.872 18.5077 191.037 18.5077H195.93C196.094 18.5077 196.229 18.6427 196.229 18.8074V22.1071C197.849 19.5878 200.741 18.2943 204.695 18.2322C204.862 18.2322 205 18.3673 205 18.5347V18.532Z" fill="#EB7F1E"/>
</g>
<defs>
<clipPath id="clip0_9008_4173">
<rect width="205" height="54" fill="white"/>
</clipPath>
</defs>
</svg>
