<svg width="24" height="24" viewBox="0 0 24 24" fill="none" xmlns="http://www.w3.org/2000/svg">
<path d="M12.9995 9.00001C12.7343 9.00001 12.48 8.89466 12.2924 8.70712C12.1049 8.51958 11.9995 8.26523 11.9995 8.00001V5.06101C12.0437 4.83454 12.0082 4.59976 11.8991 4.39647C11.7899 4.19318 11.6139 4.03389 11.4007 3.9456C11.1875 3.85732 10.9503 3.84547 10.7294 3.91207C10.5085 3.97867 10.3174 4.11961 10.1885 4.31101L3.35354 11.147C3.24146 11.2591 3.15254 11.3922 3.09188 11.5386C3.03122 11.685 3 11.842 3 12.0005C3 12.159 3.03122 12.316 3.09188 12.4624C3.15254 12.6089 3.24146 12.7419 3.35354 12.854L10.1885 19.689C10.3174 19.8804 10.5085 20.0214 10.7294 20.088C10.9503 20.1546 11.1875 20.1427 11.4007 20.0544C11.6139 19.9661 11.7899 19.8068 11.8991 19.6036C12.0082 19.4003 12.0437 19.1655 11.9995 18.939V16C11.9995 15.7348 12.1049 15.4804 12.2924 15.2929C12.48 15.1054 12.7343 15 12.9995 15H18.9995C19.2648 15 19.5191 14.8947 19.7067 14.7071C19.8942 14.5196 19.9995 14.2652 19.9995 14V10C19.9995 9.7348 19.8942 9.48044 19.7067 9.29291C19.5191 9.10537 19.2648 9.00001 18.9995 9.00001H12.9995Z" stroke="black" stroke-width="2" stroke-linecap="round" stroke-linejoin="round"/>
</svg>
