<svg width="24" height="24" viewBox="0 0 24 24" fill="none" xmlns="http://www.w3.org/2000/svg">
<path d="M8.99965 13C8.99965 12.7348 8.89429 12.4804 8.70675 12.2929C8.51922 12.1053 8.26486 12 7.99965 12H5.06065C4.83418 12.0442 4.5994 12.0087 4.3961 11.8995C4.19281 11.7904 4.03352 11.6143 3.94524 11.4011C3.85695 11.1879 3.8451 10.9508 3.9117 10.7298C3.9783 10.5089 4.11925 10.3178 4.31065 10.189L11.1466 3.35397C11.2587 3.24188 11.3918 3.15297 11.5382 3.09231C11.6847 3.03165 11.8416 3.00043 12.0001 3.00043C12.1587 3.00043 12.3156 3.03165 12.4621 3.09231C12.6085 3.15297 12.7416 3.24188 12.8536 3.35397L19.6886 10.189C19.88 10.3178 20.021 10.5089 20.0876 10.7298C20.1542 10.9508 20.1423 11.1879 20.0541 11.4011C19.9658 11.6143 19.8065 11.7904 19.6032 11.8995C19.3999 12.0087 19.1651 12.0442 18.9386 12H15.9996C15.7344 12 15.4801 12.1053 15.2925 12.2929C15.105 12.4804 14.9996 12.7348 14.9996 13V19C14.9996 19.2652 14.8943 19.5195 14.7068 19.7071C14.5192 19.8946 14.2649 20 13.9996 20H9.99965C9.73443 20 9.48008 19.8946 9.29254 19.7071C9.105 19.5195 8.99965 19.2652 8.99965 19V13Z" stroke="black" stroke-width="2" stroke-linecap="round" stroke-linejoin="round"/>
</svg>
