<svg width="24" height="24" viewBox="0 0 24 24" fill="none" xmlns="http://www.w3.org/2000/svg">
<path d="M19.9995 9V15M12.9995 8.99989C12.7343 8.99989 12.48 8.89453 12.2924 8.707C12.1049 8.51946 11.9995 8.26511 11.9995 7.99989V5.06089C12.0437 4.83442 12.0082 4.59964 11.8991 4.39635C11.7899 4.19306 11.6139 4.03377 11.4007 3.94548C11.1875 3.85719 10.9503 3.84535 10.7294 3.91194C10.5085 3.97854 10.3174 4.11949 10.1885 4.31089L3.35354 11.1469C3.24146 11.259 3.15254 11.392 3.09188 11.5385C3.03122 11.6849 3 11.8419 3 12.0004C3 12.1589 3.03122 12.3159 3.09188 12.4623C3.15254 12.6087 3.24146 12.7418 3.35354 12.8539L10.1885 19.6889C10.3174 19.8803 10.5085 20.0212 10.7294 20.0878C10.9503 20.1544 11.1875 20.1426 11.4007 20.0543C11.6139 19.966 11.7899 19.8067 11.8991 19.6034C12.0082 19.4001 12.0437 19.1654 11.9995 18.9389V15.9999C11.9995 15.7347 12.1049 15.4803 12.2924 15.2928C12.48 15.1052 12.7343 14.9999 12.9995 14.9999H14.9995C15.2648 14.9999 15.5191 14.8945 15.7067 14.707C15.8942 14.5195 15.9995 14.2651 15.9995 13.9999V9.99989C15.9995 9.73467 15.8942 9.48032 15.7067 9.29278C15.5191 9.10525 15.2648 8.99989 14.9995 8.99989H12.9995Z" stroke="black" stroke-width="2" stroke-linecap="round" stroke-linejoin="round"/>
</svg>
