<svg width="24" height="24" viewBox="0 0 24 24" fill="none" xmlns="http://www.w3.org/2000/svg">
<path d="M14.9997 11C14.9997 11.2652 15.105 11.5196 15.2926 11.7071C15.4801 11.8946 15.7345 12 15.9997 12H18.9387C19.1651 11.9558 19.3999 11.9913 19.6032 12.1004C19.8065 12.2096 19.9658 12.3857 20.0541 12.5989C20.1424 12.8121 20.1542 13.0492 20.0876 13.2701C20.021 13.491 19.8801 13.6821 19.6887 13.811L12.8537 20.647C12.7416 20.7591 12.6085 20.848 12.4621 20.9087C12.3156 20.9693 12.1587 21.0005 12.0002 21.0005C11.8417 21.0005 11.6847 20.9693 11.5383 20.9087C11.3918 20.848 11.2588 20.7591 11.1467 20.647L4.30967 13.81C4.11827 13.6811 3.97732 13.49 3.91072 13.2691C3.84413 13.0482 3.85597 12.8111 3.94426 12.5979C4.03255 12.3847 4.19184 12.2086 4.39513 12.0994C4.59842 11.9903 4.8332 11.9548 5.05967 11.999H7.99967C8.26489 11.999 8.51924 11.8936 8.70678 11.7061C8.89431 11.5186 8.99967 11.2642 8.99967 10.999V5C8.99967 4.73478 9.10503 4.48043 9.29256 4.29289C9.4801 4.10536 9.73445 4 9.99967 4H13.9997C14.2649 4 14.5192 4.10536 14.7068 4.29289C14.8943 4.48043 14.9997 4.73478 14.9997 5V11Z" stroke="black" stroke-width="2" stroke-linecap="round" stroke-linejoin="round"/>
</svg>
