<svg width="24" height="24" viewBox="0 0 24 24" fill="none" xmlns="http://www.w3.org/2000/svg">
<path d="M8.99963 20H14.9996M8.99965 13C8.99965 12.7348 8.89429 12.4805 8.70675 12.2929C8.51922 12.1054 8.26486 12 7.99965 12H5.06065C4.83418 12.0442 4.5994 12.0087 4.3961 11.8996C4.19281 11.7904 4.03352 11.6143 3.94524 11.4012C3.85695 11.188 3.8451 10.9508 3.9117 10.7299C3.9783 10.509 4.11925 10.3179 4.31065 10.189L11.1466 3.35403C11.2587 3.24195 11.3918 3.15303 11.5382 3.09237C11.6847 3.03171 11.8416 3.00049 12.0001 3.00049C12.1587 3.00049 12.3156 3.03171 12.4621 3.09237C12.6085 3.15303 12.7416 3.24195 12.8536 3.35403L19.6886 10.189C19.88 10.3179 20.021 10.509 20.0876 10.7299C20.1542 10.9508 20.1423 11.188 20.0541 11.4012C19.9658 11.6143 19.8065 11.7904 19.6032 11.8996C19.3999 12.0087 19.1651 12.0442 18.9386 12H15.9996C15.7344 12 15.4801 12.1054 15.2925 12.2929C15.105 12.4805 14.9996 12.7348 14.9996 13V15C14.9996 15.2652 14.8943 15.5196 14.7068 15.7071C14.5192 15.8947 14.2649 16 13.9996 16H9.99965C9.73443 16 9.48008 15.8947 9.29254 15.7071C9.105 15.5196 8.99965 15.2652 8.99965 15V13Z" stroke="black" stroke-width="2" stroke-linecap="round" stroke-linejoin="round"/>
</svg>
