<svg width="24" height="24" viewBox="0 0 24 24" fill="none" xmlns="http://www.w3.org/2000/svg">
<path d="M14.0002 12L5.61924 20.38C5.42226 20.577 5.1884 20.7334 4.931 20.84C4.6736 20.9467 4.39772 21.0016 4.1191 21.0017C3.5564 21.0018 3.0167 20.7783 2.61874 20.3805C2.22079 19.9827 1.99716 19.4431 1.99707 18.8804C1.99698 18.3177 2.22042 17.778 2.61824 17.38L11.0002 9M15.0003 15.4999C15.0003 15.6325 15.0529 15.7597 15.1467 15.8534C15.2405 15.9472 15.3677 15.9999 15.5003 15.9999C16.3539 15.9999 17.1991 15.8318 17.9877 15.5051C18.7763 15.1785 19.4929 14.6997 20.0965 14.0961C20.7 13.4925 21.1788 12.776 21.5055 11.9873C21.8321 11.1987 22.0003 10.3535 22.0003 9.4999C22.0003 9.36729 21.9476 9.24011 21.8538 9.14634C21.76 9.05257 21.6329 8.9999 21.5003 8.9999H19.8283C19.2979 8.99978 18.7892 8.78899 18.4143 8.4139L13.3523 3.3519C13.1263 3.12595 12.8198 2.99902 12.5003 2.99902C12.1807 2.99902 11.8742 3.12595 11.6483 3.3519L9.35226 5.6479C9.12632 5.87387 8.99939 6.18034 8.99939 6.4999C8.99939 6.81945 9.12632 7.12592 9.35226 7.3519L14.4143 12.4139C14.7894 12.7889 15.0001 13.2975 15.0003 13.8279V15.4999Z" stroke="black" stroke-width="2" stroke-linecap="round" stroke-linejoin="round"/>
</svg>
