<svg width="24" height="24" viewBox="0 0 24 24" fill="none" xmlns="http://www.w3.org/2000/svg">
<path d="M10.0005 3C8.66715 8.92593 8.66715 15.0741 10.0005 21M14.0005 3C15.3338 8.92593 15.3338 15.0741 14.0005 21M3.84058 17H20.1606M3.84058 7H20.1606M17.0004 3C17.335 3.00056 17.6642 3.08507 17.9577 3.2458C18.2512 3.40654 18.4997 3.63835 18.6804 3.92C20.1942 6.34315 20.9969 9.14284 20.9969 12C20.9969 14.8572 20.1942 17.6568 18.6804 20.08C18.4997 20.3617 18.2512 20.5935 17.9577 20.7542C17.6642 20.9149 17.335 20.9994 17.0004 21H7.00038C6.66574 20.9994 6.33659 20.9149 6.04308 20.7542C5.74957 20.5935 5.50108 20.3617 5.32038 20.08C3.80656 17.6568 3.00391 14.8572 3.00391 12C3.00391 9.14284 3.80656 6.34315 5.32038 3.92C5.50108 3.63835 5.74957 3.40654 6.04308 3.2458C6.33659 3.08507 6.66574 3.00056 7.00038 3H17.0004Z" stroke="black" stroke-width="2" stroke-linecap="round" stroke-linejoin="round"/>
</svg>
