<svg width="24" height="24" viewBox="0 0 24 24" fill="none" xmlns="http://www.w3.org/2000/svg">
<path d="M5.34082 10.6201C5.60446 11.2134 6.00855 11.7336 6.51818 12.1357C7.02782 12.5379 7.62769 12.81 8.26601 12.9285C8.90432 13.047 9.56188 13.0084 10.1819 12.8159C10.802 12.6235 11.3658 12.283 11.8248 11.8239C12.2839 11.3648 12.6242 10.8008 12.8166 10.1808C13.0089 9.56069 13.0474 8.90312 12.9288 8.26484C12.8102 7.62655 12.538 7.02673 12.1357 6.51716C11.7334 6.0076 11.2131 5.60362 10.6198 5.34009M10.1647 6.59797C9.95372 7.47797 9.63972 8.35997 8.99972 8.99997C8.35972 9.63997 7.47872 9.95397 6.59772 10.165C5.16828 10.5073 3.91423 11.3624 3.07351 12.5681C2.23278 13.7738 1.86388 15.2461 2.03679 16.7058C2.20971 18.1655 2.91241 19.5109 4.01156 20.4867C5.11072 21.4626 6.52986 22.0011 7.99972 22C15.7317 22 21.9997 15.732 21.9997 7.99997C22.0008 6.53011 21.4624 5.11097 20.4865 4.01181C19.5106 2.91265 18.1652 2.20995 16.7056 2.03704C15.2459 1.86412 13.7736 2.23303 12.5679 3.07375C11.3622 3.91447 10.5071 5.16853 10.1647 6.59797Z" stroke="black" stroke-width="2" stroke-linecap="round" stroke-linejoin="round"/>
</svg>
