<svg width="24" height="24" viewBox="0 0 24 24" fill="none" xmlns="http://www.w3.org/2000/svg">
<path d="M8.99972 9C8.35972 9.64 7.47872 9.954 6.59772 10.165C5.16828 10.5073 3.91423 11.3625 3.07351 12.5682C2.23278 13.7738 1.86388 15.2462 2.03679 16.7058C2.20971 18.1655 2.91241 19.5109 4.01156 20.4868C5.11072 21.4627 6.52986 22.0011 7.99972 22C9.8386 22.0023 11.6598 21.6413 13.3588 20.9377C15.0577 20.2341 16.6009 19.2018 17.8997 17.9M10.7498 5.09307C11.3938 3.929 12.4065 3.01199 13.6286 2.48623C14.8506 1.96047 16.2128 1.85578 17.5009 2.18861C18.7889 2.52145 19.9298 3.27293 20.7442 4.32491C21.5586 5.37689 22.0003 6.6697 21.9998 8.00007C21.9998 10.4111 21.3898 12.6801 20.3168 14.6601M5.34082 10.6201C5.60388 11.2142 6.00771 11.7353 6.5174 12.1383C7.02709 12.5413 7.62728 12.8141 8.26607 12.9331C8.90486 13.052 9.56301 13.0136 10.1836 12.821C10.8042 12.6285 11.3685 12.2877 11.8278 11.8281M10.6198 5.34106C11.5287 5.74504 12.2553 6.47198 12.6588 7.38106M1.99976 2L21.9998 22" stroke="black" stroke-width="2" stroke-linecap="round" stroke-linejoin="round"/>
</svg>
