<svg width="24" height="24" viewBox="0 0 24 24" fill="none" xmlns="http://www.w3.org/2000/svg">
<path d="M10.2682 21C10.4438 21.304 10.6963 21.5565 11.0003 21.732C11.3043 21.9075 11.6492 21.9999 12.0002 21.9999C12.3513 21.9999 12.6962 21.9075 13.0002 21.732C13.3042 21.5565 13.5567 21.304 13.7323 21M15.0002 8H21.0002M16.2432 3.75699C15.4041 2.91773 14.335 2.34617 13.171 2.1146C12.007 1.88303 10.8005 2.00185 9.70405 2.45603C8.6076 2.91022 7.67048 3.67936 7.0112 4.66619C6.35192 5.65302 6.0001 6.8132 6.00025 7.99999C6.00025 12.499 4.58925 13.956 3.26225 15.326C3.13161 15.4692 3.0454 15.6472 3.0141 15.8385C2.9828 16.0298 3.00777 16.226 3.08595 16.4034C3.16414 16.5807 3.29218 16.7315 3.4545 16.8375C3.61682 16.9434 3.80642 16.9998 4.00025 17H20.0002C20.194 17.0001 20.3837 16.9438 20.5461 16.8381C20.7085 16.7324 20.8367 16.5817 20.9151 16.4045C20.9935 16.2273 21.0187 16.0311 20.9877 15.8398C20.9566 15.6485 20.8707 15.4703 20.7402 15.327C19.8231 14.376 19.1168 13.2423 18.6672 12" stroke="black" stroke-width="2" stroke-linecap="round" stroke-linejoin="round"/>
</svg>
