<svg width="24" height="24" viewBox="0 0 24 24" fill="none" xmlns="http://www.w3.org/2000/svg">
<path d="M17.0002 3H21.0002M21.0002 3V7M21.0002 3L9.70737 14.2929M18.5752 11.082C19.9992 13.867 20.3713 17.0719 19.6232 20.109C19.5754 20.3051 19.4777 20.4854 19.3396 20.6325C19.2014 20.7796 19.0276 20.8885 18.835 20.9485C18.6424 21.0086 18.4375 21.0179 18.2402 20.9754C18.043 20.9329 17.86 20.8401 17.7092 20.706L14.0002 17M7.00019 10L3.29019 6.29C3.15711 6.13897 3.06525 5.95615 3.02349 5.75922C2.98174 5.5623 2.9915 5.35793 3.05183 5.16589C3.11216 4.97384 3.22102 4.8006 3.36788 4.66293C3.51474 4.52526 3.69464 4.42781 3.89019 4.38C6.92846 3.63186 10.1346 4.00467 12.9202 5.43M9.70737 14.2929C9.8949 14.4804 10.0003 14.7348 10.0003 15V17C10.0006 17.2242 9.95665 17.4463 9.87084 17.6535C9.78503 17.8606 9.65908 18.0487 9.50026 18.207L6.85426 20.854C6.78433 20.9241 6.69516 20.9719 6.59805 20.9912C6.50094 21.0106 6.40027 21.0007 6.3088 20.9628C6.21732 20.9249 6.13917 20.8606 6.08424 20.7783C6.02931 20.6959 6.00008 20.599 6.00026 20.5V19C6.00026 18.7348 5.8949 18.4804 5.70737 18.2929C5.51983 18.1054 5.26548 18 5.00026 18H3.50026C3.40132 18 3.30462 17.9706 3.22238 17.9156C3.14015 17.8606 3.07608 17.7824 3.03829 17.691C3.00049 17.5996 2.99067 17.499 3.01007 17.402C3.02947 17.305 3.07721 17.2159 3.14726 17.146L5.79326 14.5C5.95153 14.3412 6.13966 14.2152 6.34681 14.1294C6.55396 14.0436 6.77604 13.9996 7.00026 14H9.00026C9.26548 14 9.51983 14.1054 9.70737 14.2929Z" stroke="black" stroke-width="2" stroke-linecap="round" stroke-linejoin="round"/>
</svg>
