<svg width="24" height="24" viewBox="0 0 24 24" fill="none" xmlns="http://www.w3.org/2000/svg">
<path d="M6.00283 5.12505C5.98499 4.72548 6.04722 4.32637 6.18588 3.9512C6.32454 3.57604 6.53682 3.23238 6.81023 2.94045C7.08365 2.64853 7.41268 2.41422 7.77797 2.25132C8.14326 2.08841 8.53744 2.0002 8.93733 1.99186C9.33721 1.98353 9.73472 2.05524 10.1065 2.20278C10.4783 2.35032 10.8168 2.57072 11.1021 2.851C11.3874 3.13128 11.6139 3.46579 11.768 3.83485C11.9222 4.20391 12.001 4.60008 11.9998 5.00005V18M6.00283 5.12505C5.41503 5.27619 4.86933 5.5591 4.40706 5.95236C3.94479 6.34562 3.57807 6.83892 3.33467 7.3949C3.09128 7.95087 2.97759 8.55494 3.00222 9.16136C3.02685 9.76778 3.18915 10.3606 3.47683 10.8951M6.00283 5.12505C6.02261 5.60878 6.15926 6.0805 6.40093 6.5M3.47683 10.8951C2.97101 11.306 2.57326 11.8343 2.31817 12.434C2.06308 13.0337 1.95839 13.6866 2.01319 14.336C2.068 14.9854 2.28065 15.6116 2.63264 16.1601C2.98462 16.7085 3.46529 17.1627 4.03283 17.4831M3.47683 10.8951C3.65977 10.7461 3.85563 10.6145 4.06193 10.5M4.03283 17.4831C3.96275 18.0253 4.00457 18.5761 4.15572 19.1016C4.30686 19.627 4.56413 20.1159 4.91161 20.538C5.2591 20.9601 5.68944 21.3065 6.17605 21.5558C6.66266 21.8051 7.19521 21.952 7.74081 21.9874C8.28641 22.0228 8.83347 21.946 9.34822 21.7617C9.86296 21.5774 10.3345 21.2895 10.7336 20.9158C11.1327 20.5421 11.451 20.0906 11.6688 19.5891C11.8866 19.0876 11.9992 18.5468 11.9998 18M4.03283 17.4831C4.6331 17.8216 5.31067 18.0002 5.99984 17.9999M11.9998 18L17.9999 18C18.5303 18 19.039 18.2107 19.4141 18.5858C19.7892 18.9609 19.9999 19.4696 19.9999 20V21M8.99988 13C9.83943 12.7047 10.5726 12.167 11.1066 11.455C11.6405 10.743 11.9514 9.88867 11.9999 9M11.9999 13H15.9999M11.9999 8H19.9999M15.9999 8V5C15.9999 4.46957 16.2106 3.96086 16.5857 3.58579C16.9607 3.21071 17.4694 3 17.9999 3M16.4999 13C16.4999 13.2761 16.276 13.5 15.9999 13.5C15.7237 13.5 15.4999 13.2761 15.4999 13C15.4999 12.7239 15.7237 12.5 15.9999 12.5C16.276 12.5 16.4999 12.7239 16.4999 13ZM18.4999 3C18.4999 3.27614 18.276 3.5 17.9999 3.5C17.7237 3.5 17.4999 3.27614 17.4999 3C17.4999 2.72386 17.7237 2.5 17.9999 2.5C18.276 2.5 18.4999 2.72386 18.4999 3ZM20.4999 21C20.4999 21.2761 20.276 21.5 19.9999 21.5C19.7237 21.5 19.4999 21.2761 19.4999 21C19.4999 20.7239 19.7237 20.5 19.9999 20.5C20.276 20.5 20.4999 20.7239 20.4999 21ZM20.4999 8C20.4999 8.27614 20.276 8.5 19.9999 8.5C19.7237 8.5 19.4999 8.27614 19.4999 8C19.4999 7.72386 19.7237 7.5 19.9999 7.5C20.276 7.5 20.4999 7.72386 20.4999 8Z" stroke="black" stroke-width="2" stroke-linecap="round" stroke-linejoin="round"/>
</svg>
