<svg width="24" height="24" viewBox="0 0 24 24" fill="none" xmlns="http://www.w3.org/2000/svg">
<path d="M11.9999 18V5M11.9999 18C12.0005 18.5467 12.1131 19.0875 12.3309 19.589C12.5487 20.0905 12.867 20.542 13.2661 20.9157C13.6652 21.2893 14.1367 21.5772 14.6515 21.7615C15.1662 21.9458 15.7133 22.0227 16.2589 21.9872C16.8045 21.9518 17.337 21.805 17.8237 21.5557C18.3103 21.3064 18.7406 20.96 19.0881 20.5379C19.4356 20.1157 19.6928 19.6269 19.844 19.1014C19.9951 18.576 20.037 18.0251 19.9669 17.4829M11.9999 18C11.9993 18.5467 11.8866 19.0875 11.6688 19.589C11.4511 20.0905 11.1328 20.542 10.7336 20.9157C10.3345 21.2893 9.86301 21.5772 9.34826 21.7615C8.83352 21.9458 8.28645 22.0227 7.74085 21.9872C7.19525 21.9518 6.6627 21.805 6.1761 21.5557C5.68949 21.3064 5.25915 20.96 4.91166 20.5379C4.56417 20.1157 4.30691 19.6269 4.15576 19.1014C4.00462 18.576 3.96279 18.0251 4.03288 17.4829M11.9999 5C11.9999 4.53983 12.1057 4.0857 12.3092 3.67298C12.5127 3.26025 12.8085 2.89988 13.1735 2.61973C13.5386 2.33959 13.9633 2.14718 14.4146 2.0574C14.8659 1.96763 15.3319 1.98288 15.7763 2.10198C16.2208 2.22108 16.632 2.44085 16.9779 2.74427C17.3239 3.04769 17.5955 3.42663 17.7715 3.85178C17.9476 4.27693 18.0236 4.73689 17.9934 5.19608C17.9633 5.65527 17.828 6.10138 17.5979 6.49989M11.9999 5C11.9999 4.53983 11.8941 4.0857 11.6905 3.67298C11.487 3.26025 11.1913 2.89988 10.8262 2.61973C10.4611 2.33959 10.0365 2.14718 9.58517 2.0574C9.13384 1.96763 8.66791 1.98288 8.22341 2.10198C7.77892 2.22108 7.36778 2.44085 7.02181 2.74427C6.67583 3.04769 6.4043 3.42663 6.22821 3.85178C6.05212 4.27693 5.97619 4.73689 6.00631 5.19608C6.03642 5.65527 6.17177 6.10138 6.40188 6.49989M14.9999 13C14.1347 12.7471 13.3747 12.2206 12.8339 11.4995C12.293 10.7784 12.0004 9.90141 11.9999 9C11.9993 9.90141 11.7067 10.7784 11.1659 11.4995C10.625 12.2206 9.86508 12.7471 8.99988 13M17.9968 5.125C18.5846 5.27614 19.1303 5.55905 19.5926 5.95231C20.0549 6.34557 20.4216 6.83887 20.665 7.39485C20.9084 7.95082 21.0221 8.55489 20.9974 9.16131C20.9728 9.76773 20.8105 10.3606 20.5228 10.895M17.9999 17.9999C18.8804 17.9999 19.7363 17.7093 20.4348 17.1733C21.1334 16.6372 21.6355 15.8857 21.8634 15.0352C22.0913 14.1847 22.0322 13.2827 21.6953 12.4693C21.3583 11.6558 20.7624 10.9762 19.9999 10.5359M5.99983 17.9999C5.11932 17.9999 4.26343 17.7093 3.56489 17.1733C2.86635 16.6372 2.3642 15.8857 2.1363 15.0352C1.90841 14.1847 1.96751 13.2827 2.30444 12.4693C2.64137 11.6558 3.23731 10.9762 3.99983 10.5359M6.00293 5.125C5.41513 5.27614 4.86943 5.55905 4.40716 5.95231C3.94489 6.34557 3.57817 6.83887 3.33477 7.39485C3.09138 7.95082 2.97769 8.55489 3.00232 9.16131C3.02695 9.76773 3.18925 10.3606 3.47693 10.895" stroke="black" stroke-width="2" stroke-linecap="round" stroke-linejoin="round"/>
</svg>
