<svg width="24" height="24" viewBox="0 0 24 24" fill="none" xmlns="http://www.w3.org/2000/svg">
<path d="M10.8522 14.772L10.4692 15.695M10.8522 9.22793L10.4692 8.30493M13.1482 14.772L13.5302 15.696M13.5312 8.30493L13.1482 9.22793M14.7722 10.852L15.6952 10.469M14.7722 13.1479L15.6952 13.5309M17.5983 6.50002C17.8284 6.10151 17.9637 5.65541 17.9938 5.19622C18.024 4.73703 17.948 4.27707 17.7719 3.85192C17.5959 3.42677 17.3243 3.04782 16.9784 2.7444C16.6324 2.44098 16.2212 2.22122 15.7767 2.10212C15.3323 1.98301 14.8663 1.96776 14.415 2.05754C13.9637 2.14732 13.539 2.33972 13.1739 2.61987C12.8089 2.90001 12.5131 3.26039 12.3096 3.67311C12.1061 4.08584 12.0003 4.53985 12.0003 5.00002C12.0009 4.33382 11.7797 3.68636 11.3716 3.15976C10.9636 2.63315 10.3918 2.25735 9.74657 2.09162C9.10131 1.9259 8.41924 1.97966 7.80791 2.24445C7.19659 2.50924 6.69079 2.96998 6.37028 3.55402C6.10645 4.03426 5.97918 4.57758 6.00228 5.12502M6.00228 5.12502C5.41443 5.27624 4.8687 5.55926 4.40644 5.95264C3.94418 6.34602 3.5775 6.83944 3.33419 7.39553C3.09089 7.95162 2.97733 8.55579 3.00212 9.16228C3.02691 9.76876 3.1894 10.3616 3.47728 10.896M6.00228 5.12502C6.02267 5.60893 6.15983 6.08068 6.4022 6.5M17.9983 5.125C18.5861 5.27622 19.1319 5.55923 19.5941 5.95261C20.0564 6.34599 20.4231 6.83942 20.6664 7.39551C20.9097 7.9516 21.0232 8.55577 20.9985 9.16225C20.9737 9.76874 20.8112 10.3616 20.5233 10.896M19.5052 10.2939C20.3644 10.6429 21.0757 11.2795 21.5173 12.095C21.959 12.9104 22.1036 13.854 21.9264 14.7642C21.7492 15.6745 21.2612 16.4949 20.546 17.0851C19.8307 17.6754 18.9326 17.9987 18.0052 17.9999M4.03228 17.4829C3.91189 18.4006 4.1135 19.3317 4.60273 20.1174C5.09196 20.9031 5.83853 21.4949 6.7152 21.7918C7.59187 22.0887 8.54438 22.0724 9.41037 21.7456C10.2764 21.4189 11.0022 20.8019 11.4643 19.9999C11.6443 19.6889 12.3563 19.6889 12.5363 19.9999C12.9983 20.8018 13.7241 21.4186 14.5899 21.7453C15.4558 22.072 16.4081 22.0884 17.2847 21.7916C18.1613 21.4949 18.9079 20.9034 19.3972 20.1179C19.8865 19.3324 20.0883 18.4015 19.9683 17.4839M4.50028 10.291C3.63917 10.6387 2.92589 11.2753 2.48277 12.0914C2.03965 12.9075 1.89432 13.8524 2.07169 14.764C2.24906 15.6756 2.73809 16.497 3.45489 17.0875C4.1717 17.6779 5.07161 18.0005 6.00028 18M9.2283 10.852L8.3053 10.469M9.2283 13.1479L8.3053 13.5309M15.0002 12C15.0002 13.6569 13.6571 15 12.0002 15C10.3434 15 9.00024 13.6569 9.00024 12C9.00024 10.3431 10.3434 9 12.0002 9C13.6571 9 15.0002 10.3431 15.0002 12Z" stroke="black" stroke-width="2" stroke-linecap="round" stroke-linejoin="round"/>
</svg>
