<svg width="24" height="24" viewBox="0 0 24 24" fill="none" xmlns="http://www.w3.org/2000/svg">
<path d="M16.0005 22L15.0005 18M19.0005 13.99C19.2657 13.99 19.5201 13.8846 19.7076 13.6971C19.8951 13.5096 20.0005 13.2552 20.0005 12.99V12C20.0005 11.4696 19.7898 10.9609 19.4147 10.5858C19.0396 10.2107 18.5309 10 18.0005 10H15.0005C14.7353 10 14.4809 9.89464 14.2934 9.70711C14.1058 9.51957 14.0005 9.26522 14.0005 9V4C14.0005 3.46957 13.7898 2.96086 13.4147 2.58579C13.0396 2.21071 12.5309 2 12.0005 2C11.4701 2 10.9613 2.21071 10.5863 2.58579C10.2112 2.96086 10.0005 3.46957 10.0005 4V9C10.0005 9.26522 9.89513 9.51957 9.70759 9.70711C9.52006 9.89464 9.2657 10 9.00049 10H6.00049C5.47006 10 4.96135 10.2107 4.58627 10.5858C4.2112 10.9609 4.00049 11.4696 4.00049 12V12.99C4.00049 13.2552 4.10585 13.5096 4.29338 13.6971C4.48092 13.8846 4.73527 13.99 5.00049 13.99M8.00049 22L9.00049 18M5.00052 14H19.0005L20.9735 20.767C21.0087 20.914 21.0102 21.0671 20.9777 21.2148C20.9452 21.3624 20.8797 21.5008 20.7861 21.6195C20.6924 21.7382 20.5731 21.8341 20.437 21.9C20.3009 21.9659 20.1517 22.0001 20.0005 22H4.00052C3.84934 22.0001 3.70011 21.9659 3.56405 21.9C3.42799 21.8341 3.30864 21.7382 3.21499 21.6195C3.12133 21.5008 3.05581 21.3624 3.02334 21.2148C2.99087 21.0671 2.9923 20.914 3.02752 20.767L5.00052 14Z" stroke="black" stroke-width="2" stroke-linecap="round" stroke-linejoin="round"/>
</svg>
