<svg width="24" height="24" viewBox="0 0 24 24" fill="none" xmlns="http://www.w3.org/2000/svg">
<path d="M10 19.655C8.83049 19.2415 7.81789 18.4757 7.10156 17.463C6.38522 16.4503 6.00038 15.2405 6 14V11C6 9.93913 6.42143 8.92172 7.17157 8.17157C7.92172 7.42143 8.93913 7 10 7H14C15.0557 6.99997 16.0686 7.41728 16.8179 8.16095C17.5672 8.90462 17.9921 9.91434 18 10.97M14.1201 3.88L16.0001 2M20.97 5C20.97 7.1 19.37 8.8 17.47 9M3 21C3 18.9 4.7 17.1 6.8 17M6 13H2M6.53 9C4.6 8.8 3 7.1 3 5M8 2L9.88 3.88M9.00001 7.13012V6.13012C8.9766 5.62238 9.08258 5.11702 9.308 4.66146C9.53342 4.2059 9.87089 3.81508 10.2887 3.52569C10.7066 3.23629 11.1911 3.0578 11.6968 3.00698C12.2026 2.95616 12.7129 3.03466 13.18 3.23512C13.7425 3.47477 14.2183 3.88055 14.5437 4.39813C14.8692 4.9157 15.0287 5.52036 15.001 6.13112V7.13112M14 15.003C13.9995 14.8256 14.0462 14.6511 14.1353 14.4977C14.2245 14.3442 14.3528 14.2173 14.5073 14.1298C14.6617 14.0424 14.8366 13.9976 15.0141 14.0001C15.1915 14.0026 15.3651 14.0523 15.517 14.144L20.514 17.141C20.6628 17.2297 20.786 17.3555 20.8715 17.506C20.9571 17.6566 21.002 17.8268 21.002 18C21.002 18.1732 20.9571 18.3434 20.8715 18.494C20.786 18.6446 20.6628 18.7704 20.514 18.859L15.517 21.856C15.365 21.9478 15.1913 21.9975 15.0138 21.9999C14.8363 22.0024 14.6613 21.9575 14.5068 21.87C14.3524 21.7824 14.224 21.6553 14.1349 21.5017C14.0459 21.3481 13.9993 21.1736 14 20.996V15.003Z" stroke="black" stroke-width="2" stroke-linecap="round" stroke-linejoin="round"/>
</svg>
