<svg width="24" height="24" viewBox="0 0 24 24" fill="none" xmlns="http://www.w3.org/2000/svg">
<path d="M17.7501 7.0001L15.0001 2.1001M10.9001 4.80005L13.0001 9.00005M7.90015 9.69995L9.90015 14.1M4.90015 14.7L7.00015 18.9M5.70014 20.9999C5.56882 21.2297 5.39352 21.4314 5.18425 21.5935C4.97497 21.7556 4.73583 21.8748 4.48047 21.9445C3.96474 22.0851 3.41427 22.0151 2.95014 21.7499C2.48601 21.4847 2.14625 21.046 2.0056 20.5303C1.86494 20.0145 1.93492 19.4641 2.20014 18.9999L10.8001 4.99993C11.5958 3.6208 12.9067 2.61423 14.4445 2.20165C15.9823 1.78907 17.621 2.00428 19.0001 2.79993C20.3793 3.59558 21.3858 4.9065 21.7984 6.44429C22.211 7.98209 21.9958 9.6208 21.2001 10.9999C21.0698 11.2292 20.8953 11.4305 20.6869 11.5921C20.4784 11.7537 20.2401 11.8724 19.9855 11.9415C19.731 12.0107 19.4653 12.0287 19.2037 11.9947C18.9422 11.9607 18.6899 11.8753 18.4615 11.7435C18.2331 11.6116 18.033 11.4358 17.8728 11.2263C17.7125 11.0168 17.5954 10.7776 17.5279 10.5226C17.4605 10.2676 17.4442 10.0018 17.4799 9.74048C17.5157 9.47915 17.6027 9.22747 17.7361 8.99993C17.8695 8.77239 17.9566 8.52071 17.9923 8.25938C18.0281 7.99805 18.0118 7.73224 17.9443 7.47724C17.8769 7.22224 17.7597 6.98309 17.5995 6.77357C17.4393 6.56405 17.2392 6.38829 17.0108 6.2564C16.7824 6.12452 16.5301 6.03912 16.2686 6.00512C16.007 5.97113 15.7413 5.9892 15.4868 6.05831C15.2322 6.12742 14.9938 6.24619 14.7854 6.40779C14.5769 6.5694 14.4025 6.77064 14.2721 6.99993L5.70014 20.9999Z" stroke="black" stroke-width="2" stroke-linecap="round" stroke-linejoin="round"/>
</svg>
