<svg width="24" height="24" viewBox="0 0 24 24" fill="none" xmlns="http://www.w3.org/2000/svg">
<path d="M9.99976 7V17.9M13.9998 6.1001V17.0001M15.9998 7.00003V3.00003C15.9998 2.80228 16.0585 2.60898 16.1684 2.44457C16.2782 2.28016 16.4344 2.15202 16.6171 2.07635C16.7998 2.00068 17.0008 1.98088 17.1948 2.01945C17.3887 2.05802 17.5669 2.15322 17.7068 2.29303C17.9835 2.57375 18.3228 2.78504 18.6968 2.90964C19.0708 3.03425 19.4689 3.06865 19.8588 3.01003C20.0124 2.98815 20.169 3.00233 20.3162 3.05143C20.4634 3.10053 20.5971 3.18321 20.7069 3.29294C20.8166 3.40266 20.8993 3.53641 20.9484 3.68361C20.9975 3.8308 21.0116 3.98741 20.9898 4.14103C20.9311 4.53086 20.9655 4.92903 21.0901 5.30303C21.2148 5.67703 21.426 6.01626 21.7068 6.29303C21.8466 6.43288 21.9418 6.61105 21.9803 6.805C22.0189 6.99895 21.9991 7.19999 21.9234 7.38269C21.8478 7.56539 21.7196 7.72155 21.5552 7.83143C21.3908 7.94132 21.1975 7.99999 20.9998 8.00003H16.9998M7.99979 17V21C7.99974 21.1978 7.94107 21.391 7.83119 21.5555C7.7213 21.7199 7.56514 21.848 7.38244 21.9237C7.19974 21.9993 6.99871 22.0192 6.80476 21.9806C6.6108 21.942 6.43264 21.8468 6.29279 21.707C6.01602 21.4263 5.67679 21.215 5.30278 21.0904C4.92878 20.9658 4.53062 20.9314 4.14079 20.99C3.98717 21.0119 3.83056 20.9977 3.68336 20.9486C3.53617 20.8995 3.40241 20.8168 3.29269 20.7071C3.18297 20.5974 3.10029 20.4636 3.05118 20.3164C3.00208 20.1692 2.98791 20.0126 3.00979 19.859C3.06841 19.4692 3.03401 19.071 2.9094 18.697C2.78479 18.323 2.5735 17.9838 2.29279 17.707C2.15298 17.5671 2.05777 17.389 2.0192 17.195C1.98064 17.0011 2.00044 16.8 2.07611 16.6173C2.15178 16.4346 2.27992 16.2785 2.44433 16.1686C2.60874 16.0587 2.80204 16 2.99979 16H6.99979M16.5358 7.46493C16.0715 7.0005 15.5202 6.63208 14.9135 6.38073C14.3068 6.12937 13.6565 6 12.9998 6C12.3431 6 11.6928 6.12937 11.0861 6.38073C10.4794 6.63208 9.92812 7.0005 9.46381 7.46493L7.46381 9.46493C6.52646 10.4026 5.99988 11.6741 5.99988 12.9999C5.99988 14.3258 6.52646 15.5973 7.46381 16.5349C7.92812 16.9994 8.47937 17.3678 9.08609 17.6191C9.6928 17.8705 10.3431 17.9999 10.9998 17.9999C11.6565 17.9999 12.3068 17.8705 12.9135 17.6191C13.5202 17.3678 14.0715 16.9994 14.5358 16.5349L16.5358 14.5349C17.4732 13.5973 17.9997 12.3258 17.9997 10.9999C17.9997 9.67411 17.4732 8.40257 16.5358 7.46493Z" stroke="black" stroke-width="2" stroke-linecap="round" stroke-linejoin="round"/>
</svg>
