<svg width="24" height="24" viewBox="0 0 24 24" fill="none" xmlns="http://www.w3.org/2000/svg">
<path d="M12.656 7H13C13.4198 7.00004 13.835 7.08819 14.2186 7.25877C14.6022 7.42934 14.9458 7.67854 15.2271 7.99024C15.5083 8.30194 15.721 8.66921 15.8514 9.06829C15.9818 9.46736 16.027 9.88937 15.984 10.307M13 13H9M19.071 19.0709C17.1958 20.9461 14.6525 21.9996 12.0005 21.9996C9.34859 21.9996 6.80525 20.9461 4.93004 19.0709C3.05483 17.1957 2.00134 14.6524 2.00134 12.0004C2.00134 9.34848 3.05483 6.80514 4.93004 4.92993M2 2L22 22M8.35706 2.68706C10.1676 1.97876 12.1453 1.81356 14.0482 2.21169C15.9511 2.60981 17.6967 3.55399 19.0714 4.92869C20.4461 6.30339 21.3903 8.049 21.7884 9.95193C22.1866 11.8548 22.0214 13.8326 21.3131 15.6431M9 17V9" stroke="black" stroke-width="2" stroke-linecap="round" stroke-linejoin="round"/>
</svg>
