<svg width="24" height="24" viewBox="0 0 24 24" fill="none" xmlns="http://www.w3.org/2000/svg">
<path d="M10.0995 2.18005C11.3544 1.93543 12.6447 1.93543 13.8995 2.18005M17.5995 3.70996C18.6618 4.42822 19.5752 5.34503 20.2895 6.40996M21.8196 10.1001C22.0642 11.355 22.0642 12.6452 21.8196 13.9001M20.2896 17.6001C19.5713 18.6624 18.6545 19.5758 17.5896 20.2901M13.8995 21.8201C12.6447 22.0644 11.3544 22.0644 10.0995 21.8201M6.39959 20.2901C5.33732 19.5718 4.4239 18.655 3.70959 17.5901M2.17956 13.9001C1.93494 12.6452 1.93494 11.355 2.17956 10.1001M3.70959 6.39996C4.42785 5.33769 5.34467 4.42427 6.40959 3.70996M12.9996 12C12.9996 12.5523 12.5519 13 11.9996 13C11.4473 13 10.9996 12.5523 10.9996 12C10.9996 11.4477 11.4473 11 11.9996 11C12.5519 11 12.9996 11.4477 12.9996 12Z" stroke="black" stroke-width="2" stroke-linecap="round" stroke-linejoin="round"/>
</svg>
