<svg width="24" height="24" viewBox="0 0 24 24" fill="none" xmlns="http://www.w3.org/2000/svg">
<path d="M10.1002 2.18191C11.3552 1.93904 12.6451 1.93904 13.9002 2.18191M13.9002 21.8181C12.6451 22.061 11.3552 22.061 10.1002 21.8181M17.6092 3.72095C18.6707 4.44017 19.5839 5.35682 20.2992 6.42095M2.18216 13.9001C1.93928 12.6451 1.93928 11.3551 2.18216 10.1001M20.2792 17.6089C19.5599 18.6704 18.6433 19.5836 17.5792 20.2989M21.8182 10.1001C22.0611 11.3551 22.0611 12.6451 21.8182 13.9001M3.72119 6.39093C4.44041 5.32946 5.35706 4.41621 6.42119 3.70093M6.39117 20.2791C5.3297 19.5599 4.41645 18.6432 3.70117 17.5791" stroke="black" stroke-width="2" stroke-linecap="round" stroke-linejoin="round"/>
</svg>
