<svg width="24" height="24" viewBox="0 0 24 24" fill="none" xmlns="http://www.w3.org/2000/svg">
<path d="M1.99988 2L21.9999 22M8.34985 2.6899C10.1605 1.98272 12.138 1.81858 14.0404 2.21754C15.9428 2.61651 17.6878 3.56128 19.0617 4.9363C20.4357 6.31133 21.3791 8.05698 21.7766 9.95972C22.1741 11.8625 22.0084 13.8398 21.2999 15.6499M19.0799 19.0799C18.1502 20.0097 17.0464 20.7472 15.8316 21.2504C14.6168 21.7536 13.3148 22.0126 11.9999 22.0126C10.6851 22.0126 9.38306 21.7536 8.16827 21.2504C6.95348 20.7472 5.8497 20.0097 4.91994 19.0799C3.99018 18.1502 3.25265 17.0464 2.74947 15.8316C2.24629 14.6168 1.9873 13.3148 1.9873 11.9999C1.9873 10.685 2.24629 9.38304 2.74947 8.16825C3.25265 6.95346 3.99018 5.84968 4.91994 4.91992" stroke="black" stroke-width="2" stroke-linecap="round" stroke-linejoin="round"/>
</svg>
