<svg width="24" height="24" viewBox="0 0 24 24" fill="none" xmlns="http://www.w3.org/2000/svg">
<path d="M12.0004 6V12L14.0004 13M12.3374 21.9941C10.2939 22.0629 8.27854 21.5036 6.56273 20.3917C4.84691 19.2799 3.51315 17.6687 2.74118 15.7755C1.9692 13.8822 1.7961 11.7979 2.24521 9.8032C2.69431 7.80855 3.74404 5.99949 5.25294 4.61979C6.76184 3.2401 8.65739 2.35608 10.6842 2.08684C12.711 1.81761 14.7716 2.17611 16.5883 3.11403C18.4051 4.05196 19.8907 5.52423 20.845 7.33246C21.7992 9.14069 22.1763 11.198 21.9254 13.2271M14.0004 18L18.0004 22M18.0004 22L22.0004 18M18.0004 22V14" stroke="black" stroke-width="2" stroke-linecap="round" stroke-linejoin="round"/>
</svg>
