<svg width="24" height="24" viewBox="0 0 24 24" fill="none" xmlns="http://www.w3.org/2000/svg">
<path d="M12.0004 6V12L13.5604 12.78M13.2273 21.9249C11.1982 22.1758 9.14093 21.7988 7.3327 20.8445C5.52447 19.8902 4.0522 18.4046 3.11428 16.5878C2.17635 14.7711 1.81785 12.7105 2.08709 10.6837C2.35632 8.6569 3.24034 6.76135 4.62004 5.25245C5.99973 3.74355 7.80879 2.69383 9.80344 2.24472C11.7981 1.79561 13.8825 1.96871 15.7757 2.74069C17.669 3.51267 19.2801 4.84642 20.392 6.56224C21.5039 8.27805 22.0631 10.2935 21.9943 12.3369M14.0004 18L18.0004 14M18.0004 14L22.0004 18M18.0004 14V22" stroke="black" stroke-width="2" stroke-linecap="round" stroke-linejoin="round"/>
</svg>
