<svg width="24" height="24" viewBox="0 0 24 24" fill="none" xmlns="http://www.w3.org/2000/svg">
<path d="M10.0001 9.17C9.54769 9.01087 9.06376 8.96249 8.58885 9.02894C8.11393 9.09538 7.66186 9.2747 7.27054 9.55188C6.87921 9.82905 6.56003 10.196 6.33975 10.6219C6.11947 11.0479 6.00452 11.5205 6.00452 12C6.00452 12.4795 6.11947 12.9521 6.33975 13.3781C6.56003 13.804 6.87921 14.171 7.27054 14.4481C7.66186 14.7253 8.11393 14.9046 8.58885 14.9711C9.06376 15.0375 9.54769 14.9891 10.0001 14.83M17.0001 9.17C16.5477 9.01087 16.0638 8.96249 15.5888 9.02894C15.1139 9.09538 14.6619 9.2747 14.2705 9.55188C13.8792 9.82905 13.56 10.196 13.3398 10.6219C13.1195 11.0479 13.0045 11.5205 13.0045 12C13.0045 12.4795 13.1195 12.9521 13.3398 13.3781C13.56 13.804 13.8792 14.171 14.2705 14.4481C14.6619 14.7253 15.1139 14.9046 15.5888 14.9711C16.0638 15.0375 16.5477 14.9891 17.0001 14.83M4 5H20C21.1046 5 22 5.89543 22 7V17C22 18.1046 21.1046 19 20 19H4C2.89543 19 2 18.1046 2 17V7C2 5.89543 2.89543 5 4 5Z" stroke="black" stroke-width="2" stroke-linecap="round" stroke-linejoin="round"/>
</svg>
