<svg width="24" height="24" viewBox="0 0 24 24" fill="none" xmlns="http://www.w3.org/2000/svg">
<path d="M10.8522 19.772L10.4692 20.696M10.8522 19.772C11.5874 20.0765 12.4131 20.0764 13.1482 19.7719M10.8522 19.772C10.1171 19.4674 9.53266 18.8832 9.22819 18.148M13.1482 14.2279L13.5312 13.3049M13.1482 14.2279C13.5122 14.3787 13.8433 14.5999 14.1219 14.8785C14.4005 15.1571 14.6215 15.4879 14.7722 15.8519M13.1482 14.2279C12.7842 14.0771 12.3944 13.9996 12.0004 13.9996C11.6064 13.9996 11.2163 14.0772 10.8522 14.2279M13.1482 19.7719C13.5123 19.6212 13.843 19.4002 14.1217 19.1216C14.4003 18.843 14.6213 18.5123 14.7721 18.1483M13.1482 19.7719L13.5302 20.696M14.7721 18.1483C14.9229 17.7843 15.0005 17.3941 15.0006 17.0001C15.0006 16.6061 14.923 16.216 14.7722 15.8519M14.7721 18.1483L15.6952 18.5309M14.7722 15.8519L15.6952 15.469M10.8522 14.2279L10.4692 13.3049M10.8522 14.2279C10.1171 14.5324 9.53289 15.1165 9.22833 15.8517M9.22819 18.148C8.92372 17.4128 8.92378 16.5868 9.22833 15.8517M9.22819 18.148L8.3053 18.5309M9.22833 15.8517L8.3053 15.469M4.20027 15.1001C3.51718 14.4561 2.9706 13.6814 2.59304 12.8219C2.21549 11.9624 2.01467 11.0357 2.00254 10.097C1.99041 9.15836 2.16721 8.22682 2.52243 7.35786C2.87765 6.48889 3.40403 5.70026 4.07025 5.03887C4.73647 4.37748 5.52891 3.85685 6.40044 3.50797C7.27196 3.15908 8.20476 2.98906 9.14334 3.00802C10.0819 3.02698 11.0071 3.23454 11.8638 3.61834C12.7205 4.00214 13.4913 4.55434 14.1303 5.2421C14.8615 6.02812 15.4021 6.97177 15.7103 8.0001H17.5003C18.4541 8.01296 19.3793 8.32862 20.142 8.90151C20.9048 9.4744 21.4658 10.2749 21.744 11.1874C22.0222 12.0999 22.0032 13.0772 21.6898 13.9782C21.3764 14.8792 20.7847 15.6573 20.0003 16.2001" stroke="black" stroke-width="2" stroke-linecap="round" stroke-linejoin="round"/>
</svg>
