<svg width="24" height="24" viewBox="0 0 24 24" fill="none" xmlns="http://www.w3.org/2000/svg">
<path d="M17.0002 15L11.5002 20.5L9.00024 18M5.00027 17.7429C4.08317 17.1039 3.33242 16.2546 2.81082 15.266C2.28923 14.2774 2.01196 13.1783 2.00222 12.0605C1.99247 10.9428 2.25053 9.83902 2.75481 8.84148C3.25908 7.84393 3.99491 6.98165 4.90074 6.32677C5.80656 5.67189 6.85604 5.24345 7.96138 5.07729C9.06672 4.91113 10.1958 5.01208 11.2541 5.37171C12.3124 5.73134 13.2693 6.33917 14.0445 7.14437C14.8198 7.94957 15.391 8.92872 15.7103 9.99991H17.5003C18.5615 10.0003 19.5884 10.3758 20.3996 11.06C21.2109 11.7441 21.7542 12.693 21.9336 13.7389C22.1131 14.7848 21.9172 15.8605 21.3804 16.776C20.8437 17.6914 20.0006 18.3877 19.0003 18.7419" stroke="black" stroke-width="2" stroke-linecap="round" stroke-linejoin="round"/>
</svg>
