<svg width="24" height="24" viewBox="0 0 24 24" fill="none" xmlns="http://www.w3.org/2000/svg">
<path d="M10.9996 20V22M18.3757 14.5121C19.2343 14.1415 19.9944 13.5753 20.5953 12.8588C21.1962 12.1422 21.6213 11.2951 21.8367 10.3851C21.9847 9.76009 21.1777 9.41509 20.5887 9.67109C19.8528 9.98941 19.0382 10.0792 18.2506 9.9289C17.463 9.77856 16.7388 9.39501 16.1719 8.828C15.605 8.26099 15.2216 7.5367 15.0714 6.74909C14.9212 5.96149 15.0112 5.14693 15.3297 4.41109C15.5847 3.82209 15.2397 3.01609 14.6137 3.16309C13.3797 3.45628 12.2704 4.13296 11.445 5.09598C10.6196 6.05899 10.1206 7.25879 10.0197 8.52309M2.99957 20.0001C2.55011 19.4002 2.24127 18.707 2.09591 17.9716C1.95054 17.2363 1.97236 16.4777 2.15976 15.7519C2.34716 15.0261 2.69533 14.3518 3.17853 13.7788C3.66174 13.2057 4.26759 12.7487 4.95128 12.4414C5.63498 12.1341 6.37901 11.9845 7.12833 12.0036C7.87766 12.0227 8.61311 12.21 9.28026 12.5517C9.94742 12.8934 10.5292 13.3807 10.9826 13.9776C11.436 14.5745 11.7494 15.2657 11.8996 16.0001H12.9996C13.608 15.9992 14.2024 16.1833 14.7037 16.5281C15.2051 16.8728 15.5898 17.3619 15.8068 17.9303C16.0237 18.4988 16.0627 19.1198 15.9186 19.7109C15.7744 20.302 15.4539 20.8353 14.9996 21.2401M6.99963 19V21" stroke="black" stroke-width="2" stroke-linecap="round" stroke-linejoin="round"/>
</svg>
