<svg width="24" height="24" viewBox="0 0 24 24" fill="none" xmlns="http://www.w3.org/2000/svg">
<path d="M22.0003 10.0001C22.0003 9.20441 21.6842 8.44135 21.1216 7.87874C20.559 7.31613 19.796 7.00006 19.0003 7.00006H16.7933C16.4541 5.80639 15.7212 4.76245 14.7139 4.03779C13.7065 3.31312 12.4837 2.95028 11.2441 3.0082C10.0045 3.06611 8.82092 3.54137 7.8855 4.35681C6.95008 5.17224 6.31779 6.27995 6.09131 7.50006M17.5002 21H9.00016C7.70202 20.9997 6.42955 20.6384 5.32494 19.9565C4.22032 19.2746 3.32708 18.2989 2.74503 17.1386C2.16298 15.9783 1.91505 14.679 2.02895 13.3858C2.14285 12.0927 2.61409 10.8567 3.39001 9.81598C4.16593 8.77526 5.21596 7.97079 6.42276 7.49249C7.62957 7.01418 8.9456 6.88087 10.2238 7.10747C11.502 7.33406 12.692 7.91162 13.6609 8.77561C14.6297 9.6396 15.3393 10.756 15.7102 12H17.5002C18.0911 12 18.6763 12.1164 19.2222 12.3425C19.7682 12.5687 20.2643 12.9002 20.6821 13.318C21.1 13.7359 21.4315 14.232 21.6576 14.7779C21.8838 15.3239 22.0002 15.9091 22.0002 16.5C22.0002 17.091 21.8838 17.6761 21.6576 18.2221C21.4315 18.768 21.1 19.2641 20.6821 19.682C20.2643 20.0998 19.7682 20.4313 19.2222 20.6575C18.6763 20.8836 18.0911 21 17.5002 21Z" stroke="black" stroke-width="2" stroke-linecap="round" stroke-linejoin="round"/>
</svg>
