<svg width="24" height="24" viewBox="0 0 24 24" fill="none" xmlns="http://www.w3.org/2000/svg">
<path d="M12.0003 17.66C11.4758 18.4052 10.7743 19.0083 9.95889 19.4153C9.1435 19.8222 8.23978 20.0201 7.32895 19.9913C6.41812 19.9625 5.52873 19.7078 4.7407 19.2501C3.95268 18.7924 3.29072 18.1461 2.81433 17.3693C2.33793 16.5924 2.06203 15.7094 2.01142 14.7995C1.96081 13.8896 2.13707 12.9814 2.52437 12.1565C2.91166 11.3317 3.49786 10.6159 4.23026 10.0737C4.96266 9.53144 5.81833 9.17968 6.72034 9.05001C6.48126 8.23032 6.43631 7.36622 6.58906 6.52614C6.7418 5.68606 7.08803 4.89309 7.60034 4.21001C8.11265 3.52693 8.77696 2.97251 9.54066 2.59066C10.3044 2.20881 11.1465 2.01001 12.0003 2.01001C12.8542 2.01001 13.6963 2.20881 14.46 2.59066C15.2237 2.97251 15.888 3.52693 16.4003 4.21001C16.9126 4.89309 17.2589 5.68606 17.4116 6.52614C17.5644 7.36622 17.5194 8.23032 17.2803 9.05001V9.06001C18.1834 9.18851 19.0404 9.53961 19.774 10.0817C20.5077 10.6238 21.095 11.3398 21.483 12.1654C21.8711 12.9909 22.0477 13.9 21.9971 14.8108C21.9464 15.7216 21.6699 16.6055 21.1927 17.3828C20.7154 18.1602 20.0523 18.8067 19.263 19.264C18.4737 19.7213 17.5831 19.9752 16.6713 20.0027C15.7595 20.0302 14.8552 19.8304 14.0398 19.4215C13.2245 19.0125 12.5236 18.4072 12.0003 17.66ZM12.0003 17.66L12.0002 21.9999" stroke="black" stroke-width="2" stroke-linecap="round" stroke-linejoin="round"/>
</svg>
