<svg width="24" height="24" viewBox="0 0 24 24" fill="none" xmlns="http://www.w3.org/2000/svg">
<path d="M15.5357 11.2931C15.3482 11.4806 15.2429 11.7349 15.2429 12.0001C15.2429 12.2652 15.3482 12.5195 15.5357 12.7071L17.9117 15.0841C18.0992 15.2715 18.3535 15.3769 18.6187 15.3769C18.8839 15.3769 19.1382 15.2715 19.3257 15.0841L21.7027 12.7071C21.8902 12.5195 21.9955 12.2652 21.9955 12.0001C21.9955 11.7349 21.8902 11.4806 21.7027 11.2931L19.3257 8.91608C19.1382 8.72861 18.8839 8.62329 18.6187 8.62329C18.3535 8.62329 18.0992 8.72861 17.9117 8.91608L15.5357 11.2931Z" stroke="black" stroke-width="2" stroke-linecap="round" stroke-linejoin="round"/>
<path d="M2.29669 11.2931C2.10922 11.4806 2.00391 11.7349 2.00391 12.0001C2.00391 12.2652 2.10922 12.5195 2.29669 12.7071L4.67369 15.0841C4.86122 15.2715 5.11553 15.3769 5.38069 15.3769C5.64586 15.3769 5.90016 15.2715 6.08769 15.0841L8.46469 12.7071C8.65216 12.5195 8.75748 12.2652 8.75748 12.0001C8.75748 11.7349 8.65216 11.4806 8.46469 11.2931L6.08769 8.91608C5.90016 8.72861 5.64586 8.62329 5.38069 8.62329C5.11553 8.62329 4.86122 8.72861 4.67369 8.91608L2.29669 11.2931Z" stroke="black" stroke-width="2" stroke-linecap="round" stroke-linejoin="round"/>
<path d="M8.91572 17.912C8.82275 18.0048 8.74899 18.1151 8.69866 18.2365C8.64834 18.3579 8.62244 18.488 8.62244 18.6194C8.62244 18.7509 8.64834 18.881 8.69866 19.0024C8.74899 19.1238 8.82275 19.2341 8.91572 19.327L11.2927 21.7029C11.4803 21.8904 11.7346 21.9957 11.9997 21.9957C12.2649 21.9957 12.5192 21.8904 12.7067 21.7029L15.0837 19.327C15.1767 19.2341 15.2505 19.1238 15.3008 19.0024C15.3511 18.881 15.377 18.7509 15.377 18.6194C15.377 18.488 15.3511 18.3579 15.3008 18.2365C15.2505 18.1151 15.1767 18.0048 15.0837 17.912L12.7067 15.536C12.5192 15.3485 12.2649 15.2432 11.9997 15.2432C11.7346 15.2432 11.4803 15.3485 11.2927 15.536L8.91572 17.912Z" stroke="black" stroke-width="2" stroke-linecap="round" stroke-linejoin="round"/>
<path d="M8.91571 4.67394C8.72824 4.86146 8.62292 5.11577 8.62292 5.38094C8.62292 5.6461 8.72824 5.90041 8.91571 6.08794L11.2927 8.46394C11.4802 8.65141 11.7345 8.75672 11.9997 8.75672C12.2649 8.75672 12.5192 8.65141 12.7067 8.46394L15.0837 6.08794C15.2712 5.90041 15.3765 5.6461 15.3765 5.38094C15.3765 5.11577 15.2712 4.86146 15.0837 4.67394L12.7067 2.29694C12.5192 2.10947 12.2649 2.00415 11.9997 2.00415C11.7345 2.00415 11.4802 2.10947 11.2927 2.29694L8.91571 4.67394Z" stroke="black" stroke-width="2" stroke-linecap="round" stroke-linejoin="round"/>
</svg>
