<svg width="24" height="24" viewBox="0 0 24 24" fill="none" xmlns="http://www.w3.org/2000/svg">
<path d="M10.2003 18H4.77428C4.47834 17.9898 4.19204 17.8922 3.95144 17.7196C3.71085 17.547 3.52673 17.307 3.42228 17.03C2.81304 14.9035 2.85905 12.6428 3.55428 10.543M18.0002 10.1999V4.77388C17.99 4.47794 17.8925 4.19164 17.7198 3.95105C17.5472 3.71045 17.3073 3.52633 17.0302 3.42188C14.9041 2.81285 12.6438 2.85885 10.5442 3.55388M18.0003 5C19.0612 5 20.0786 5.31607 20.8288 5.87868C21.5789 6.44129 22.0003 7.20435 22.0003 8C22.0003 8.53043 21.7896 9.03914 21.4145 9.41421C21.0395 9.78929 20.5308 10 20.0003 10C18.1904 9.99955 16.4143 10.4903 14.8613 11.42M5.00024 18.0001C5.00024 19.061 5.31631 20.0784 5.87892 20.8285C6.44153 21.5787 7.20459 22.0001 8.00024 22.0001C8.53068 22.0001 9.03938 21.7894 9.41446 21.4143C9.78953 21.0392 10.0002 20.5305 10.0002 20.0001C9.99961 18.1898 10.4904 16.4133 11.4202 14.8601M8.70931 2.55407C7.28583 3.04979 5.99283 3.8609 4.92698 4.92674C3.86114 5.99258 3.05004 7.28559 2.55431 8.70907C2.48119 9.01676 2.5072 9.33968 2.6286 9.63171C2.75001 9.92373 2.96061 10.1699 3.23031 10.3351L13.0373 15.7551C13.4171 15.965 13.8548 16.0458 14.2844 15.9851C14.7141 15.9245 15.1124 15.7258 15.4192 15.419C15.726 15.1122 15.9248 14.7139 15.9854 14.2842C16.046 13.8545 15.9653 13.4168 15.7553 13.0371L10.3353 3.23007C10.1702 2.96037 9.92397 2.74977 9.63195 2.62836C9.33993 2.50695 9.017 2.48095 8.70931 2.55407Z" stroke="black" stroke-width="2" stroke-linecap="round" stroke-linejoin="round"/>
</svg>
