<svg width="24" height="24" viewBox="0 0 24 24" fill="none" xmlns="http://www.w3.org/2000/svg">
<path d="M6.47974 3.65999C8.40283 2.38539 10.7075 1.81495 13.0031 2.04538C15.2987 2.2758 17.444 3.29291 19.0754 4.92431C20.7068 6.55571 21.7239 8.70102 21.9544 10.9966C22.1848 13.2922 21.6143 15.5969 20.3397 17.52M6.40973 6.40991L17.5897 17.5899M3.65975 6.47998C2.38514 8.40307 1.81471 10.7077 2.04513 13.0033C2.27556 15.299 3.29267 17.4443 4.92406 19.0757C6.55546 20.7071 8.70078 21.7242 10.9964 21.9546C13.292 22.185 15.5967 21.6146 17.5198 20.34M20.9998 19C20.9998 20.1046 20.1043 21 18.9998 21C17.8952 21 16.9998 20.1046 16.9998 19C16.9998 17.8954 17.8952 17 18.9998 17C20.1043 17 20.9998 17.8954 20.9998 19ZM6.99976 5C6.99976 6.10457 6.10433 7 4.99976 7C3.89519 7 2.99976 6.10457 2.99976 5C2.99976 3.89543 3.89519 3 4.99976 3C6.10433 3 6.99976 3.89543 6.99976 5Z" stroke="black" stroke-width="2" stroke-linecap="round" stroke-linejoin="round"/>
</svg>
