<svg width="24" height="24" viewBox="0 0 24 24" fill="none" xmlns="http://www.w3.org/2000/svg">
<path d="M20.4996 9.99998C20.1331 9.99274 19.7727 9.90498 19.4438 9.74292C19.115 9.58086 18.8259 9.34846 18.5968 9.0622C18.3678 8.77594 18.2046 8.44282 18.1187 8.08644C18.0327 7.73006 18.0262 7.35915 18.0996 6.99998H17.9996C17.4816 7.00543 16.9713 6.87438 16.52 6.62C16.0687 6.36562 15.6924 5.99689 15.4289 5.55089C15.1653 5.1049 15.0239 4.59737 15.0187 4.07935C15.0136 3.56134 15.145 3.0511 15.3996 2.59998C13.3087 1.83553 11.0226 1.79065 8.90329 2.47245C6.78401 3.15424 4.95284 4.52373 3.69991 6.36393C2.44697 8.20413 1.84392 10.4098 1.9863 12.6315C2.12868 14.8532 3.00834 16.9638 4.48593 18.629C5.96351 20.2943 7.95451 21.4188 10.1435 21.8245C12.3324 22.2302 14.5942 21.8939 16.5704 20.8688C18.5466 19.8437 20.1242 18.1885 21.0533 16.1654C21.9824 14.1423 22.2099 11.867 21.6996 9.69998C21.3996 9.89998 20.8996 9.99998 20.4996 9.99998Z" stroke="black" stroke-width="2" stroke-linecap="round" stroke-linejoin="round"/>
<path d="M11.9996 15C13.6565 15 14.9996 13.6569 14.9996 12C14.9996 10.3431 13.6565 9 11.9996 9C10.3428 9 8.99963 10.3431 8.99963 12C8.99963 13.6569 10.3428 15 11.9996 15Z" stroke="black" stroke-width="2" stroke-linecap="round" stroke-linejoin="round"/>
</svg>
