<svg width="24" height="24" viewBox="0 0 24 24" fill="none" xmlns="http://www.w3.org/2000/svg">
<path d="M9.99976 11H10.0098M13.9998 6H14.0098M17.9998 6H18.0098M6.49976 13.1001H6.50976M17.3999 9.8999C16.5999 10.6999 15.3999 10.6999 14.5999 9.8999M10.0997 7.1001C8.99971 7.2001 7.69971 7.7001 5.99971 8.6001C2.49971 10.6001 1.29971 12.5001 2.29971 14.2001C6.79971 22.0001 11.7997 22.6001 13.4997 21.6001C14.3997 21.1001 15.3997 19.5001 15.3997 16.9001M9.09973 16.4999C9.39973 15.3999 10.4997 14.7999 11.4997 15.0999M21.9998 5C21.9998 14 17.9998 17 15.9998 17C13.9998 17 9.99976 14 9.99976 5C9.99976 3 11.9998 2 15.9998 2C19.9998 2 21.9998 3 21.9998 5Z" stroke="black" stroke-width="2" stroke-linecap="round" stroke-linejoin="round"/>
</svg>
