<svg width="24" height="24" viewBox="0 0 24 24" fill="none" xmlns="http://www.w3.org/2000/svg">
<path d="M9.99976 10L6.99976 7M9.99976 14L6.99976 17M13.9998 10L16.9998 7M13.9998 14L16.9998 17M14.2048 4.1391C14.5868 3.76598 15.0396 3.47312 15.5366 3.27777C16.0335 3.08243 16.5645 2.98856 17.0983 3.0017C17.6321 3.01484 18.1579 3.13472 18.6446 3.35428C19.1314 3.57384 19.5692 3.88863 19.9324 4.28008C20.2955 4.67154 20.5766 5.13175 20.7591 5.63357C20.9416 6.13539 21.0217 6.66866 20.9948 7.20195C20.9679 7.73523 20.8345 8.25774 20.6025 8.73865C20.3705 9.21957 20.0445 9.64916 19.6438 10.0021M19.6368 14C20.0408 14.3516 20.3701 14.7808 20.6051 15.2621C20.8401 15.7434 20.976 16.267 21.0049 16.8018C21.0337 17.3366 20.9549 17.8718 20.773 18.3755C20.5911 18.8793 20.3099 19.3414 19.9461 19.7344C19.5822 20.1275 19.1431 20.4435 18.6549 20.6636C18.1666 20.8838 17.6392 21.0036 17.1037 21.0161C16.5683 21.0285 16.0358 20.9333 15.5378 20.7361C15.0398 20.5389 14.5866 20.2437 14.2048 19.868M4.36672 9.99995C3.96232 9.64812 3.63276 9.2186 3.39762 8.7369C3.16247 8.2552 3.02654 7.73116 2.9979 7.1959C2.96926 6.66064 3.0485 6.12508 3.2309 5.62104C3.4133 5.117 3.69515 4.65477 4.0597 4.26179C4.42425 3.86882 4.86406 3.55313 5.35301 3.33347C5.84196 3.1138 6.37008 2.99466 6.90598 2.98311C7.44188 2.97155 7.97464 3.06783 8.4726 3.26622C8.97057 3.4646 9.42358 3.76105 9.80472 4.13795M9.79473 19.862C9.41174 20.2327 8.95851 20.5232 8.46169 20.7163C7.96486 20.9094 7.43446 21.0012 6.90164 20.9864C6.36881 20.9716 5.84432 20.8505 5.35898 20.6301C4.87364 20.4097 4.43724 20.0946 4.07542 19.7032C3.7136 19.3117 3.43366 18.852 3.25204 18.3508C3.07043 17.8497 2.9908 17.3173 3.01785 16.785C3.04489 16.2526 3.17806 15.7311 3.40953 15.2509C3.641 14.7708 3.9661 14.3417 4.36573 13.989M10.9998 8H12.9998C13.552 8 13.9998 8.44772 13.9998 9V15C13.9998 15.5523 13.552 16 12.9998 16H10.9998C10.4475 16 9.99976 15.5523 9.99976 15V9C9.99976 8.44772 10.4475 8 10.9998 8Z" stroke="black" stroke-width="2" stroke-linecap="round" stroke-linejoin="round"/>
</svg>
