<svg width="24" height="24" viewBox="0 0 24 24" fill="none" xmlns="http://www.w3.org/2000/svg">
<path d="M10.7335 5.07599C13.0629 4.7984 15.4191 5.29081 17.4424 6.47804C19.4656 7.66527 21.0447 9.48207 21.9385 11.651C22.0219 11.8755 22.0219 12.1225 21.9385 12.347C21.571 13.238 21.0853 14.0755 20.4945 14.837M14.0845 14.158C13.5187 14.7045 12.7609 15.0069 11.9743 15C11.1877 14.9932 10.4353 14.6777 9.87905 14.1215C9.32282 13.5652 9.00731 12.8128 9.00048 12.0262C8.99364 11.2396 9.29603 10.4818 9.8425 9.91602M17.4795 17.499C16.153 18.2848 14.673 18.776 13.1399 18.9394C11.6068 19.1028 10.0565 18.9345 8.59414 18.4459C7.13182 17.9573 5.7917 17.1599 4.66472 16.1078C3.53773 15.0556 2.65026 13.7734 2.06251 12.348C1.97916 12.1235 1.97916 11.8765 2.06251 11.652C2.94914 9.50189 4.50918 7.69728 6.50851 6.50903M2.00049 2L22.0005 22" stroke="black" stroke-width="2" stroke-linecap="round" stroke-linejoin="round"/>
</svg>
