<svg width="24" height="24" viewBox="0 0 24 24" fill="none" xmlns="http://www.w3.org/2000/svg">
<path d="M2.06251 12.3481C1.97916 12.1236 1.97916 11.8766 2.06251 11.6521C2.87421 9.68397 4.25202 8.00116 6.02128 6.81701C7.79053 5.63287 9.87155 5.00073 12.0005 5.00073C14.1295 5.00073 16.2105 5.63287 17.9797 6.81701C19.749 8.00116 21.1268 9.68397 21.9385 11.6521C22.0218 11.8766 22.0218 12.1236 21.9385 12.3481C21.1268 14.3163 19.749 15.9991 17.9797 17.1832C16.2105 18.3674 14.1295 18.9995 12.0005 18.9995C9.87155 18.9995 7.79053 18.3674 6.02128 17.1832C4.25202 15.9991 2.87421 14.3163 2.06251 12.3481Z" stroke="black" stroke-width="2" stroke-linecap="round" stroke-linejoin="round"/>
<path d="M12.0005 15C13.6573 15 15.0005 13.6569 15.0005 12C15.0005 10.3431 13.6573 9 12.0005 9C10.3436 9 9.00049 10.3431 9.00049 12C9.00049 13.6569 10.3436 15 12.0005 15Z" stroke="black" stroke-width="2" stroke-linecap="round" stroke-linejoin="round"/>
</svg>
