<svg width="24" height="24" viewBox="0 0 24 24" fill="none" xmlns="http://www.w3.org/2000/svg">
<path d="M14.0002 2V6C14.0002 6.53043 14.211 7.03914 14.586 7.41421C14.9611 7.78929 15.4698 8 16.0002 8H20.0002M4.00024 6.005V4C4.00024 3.46957 4.21096 2.96086 4.58603 2.58579C4.9611 2.21071 5.46981 2 6.00024 2H15.0002L20.0002 7V20C20.0002 20.5304 19.7895 21.0391 19.4145 21.4142C19.0394 21.7893 18.5307 22 18.0002 22H6.00024C5.57899 22 5.16849 21.8669 4.82731 21.6198C4.48613 21.3727 4.23168 21.0242 4.10024 20.624M2.62032 13.7999C2.40994 13.5806 2.24618 13.3209 2.13892 13.0365C2.03166 12.7521 1.98312 12.449 1.99624 12.1453C2.00935 11.8417 2.08385 11.5439 2.21523 11.2698C2.34661 10.9957 2.53215 10.7511 2.76066 10.5507C2.98917 10.3504 3.25591 10.1983 3.54478 10.1039C3.83365 10.0094 4.13867 9.97445 4.44142 10.0011C4.74418 10.0277 5.0384 10.1155 5.30632 10.2589C5.57425 10.4024 5.81033 10.5987 6.00032 10.8359C6.19123 10.6012 6.42752 10.4073 6.69506 10.266C6.96261 10.1247 7.2559 10.0388 7.55741 10.0134C7.85892 9.98808 8.16245 10.0238 8.44983 10.1185C8.73722 10.2131 9.00256 10.3648 9.22999 10.5643C9.45741 10.7639 9.64225 11.0073 9.77344 11.2799C9.90463 11.5526 9.97949 11.8489 9.99352 12.1512C10.0076 12.4534 9.96049 12.7554 9.85512 13.039C9.74976 13.3226 9.58828 13.5821 9.38032 13.8019L6.75432 16.6579C6.66064 16.7658 6.54489 16.8523 6.4149 16.9115C6.2849 16.9708 6.1437 17.0015 6.00082 17.0015C5.85795 17.0015 5.71675 16.9708 5.58675 16.9115C5.45676 16.8523 5.34101 16.7658 5.24732 16.6579L2.62032 13.7999Z" stroke="black" stroke-width="2" stroke-linecap="round" stroke-linejoin="round"/>
</svg>
