<svg width="24" height="24" viewBox="0 0 24 24" fill="none" xmlns="http://www.w3.org/2000/svg">
<path d="M13.9998 2V6C13.9998 6.53043 14.2105 7.03914 14.5855 7.41421C14.9606 7.78929 15.4693 8 15.9998 8H19.9998M2.30469 15.5299L3.22769 15.1479M3.22771 12.852L2.30371 12.469M4.67676 21.5C5.03955 21.82 5.50602 21.9976 5.98976 22H17.9998C18.5302 22 19.0389 21.7893 19.414 21.4142C19.789 21.0391 19.9998 20.5304 19.9998 20V7L14.9998 2H5.99976C5.46932 2 4.96061 2.21071 4.58554 2.58579C4.21047 2.96086 3.99976 3.46957 3.99976 4V6.5M4.85175 11.2279L4.46875 10.3049M4.85175 16.772L4.46875 17.696M7.14771 11.2279L7.53071 10.3049M7.52971 17.696L7.14771 16.772M8.77173 12.852L9.69473 12.469M8.77173 15.1479L9.69473 15.5309M8.99976 14C8.99976 15.6569 7.65661 17 5.99976 17C4.3429 17 2.99976 15.6569 2.99976 14C2.99976 12.3431 4.3429 11 5.99976 11C7.65661 11 8.99976 12.3431 8.99976 14Z" stroke="black" stroke-width="2" stroke-linecap="round" stroke-linejoin="round"/>
</svg>
