<svg width="24" height="24" viewBox="0 0 24 24" fill="none" xmlns="http://www.w3.org/2000/svg">
<path d="M15 2C15.5304 2.00011 16.039 2.2109 16.414 2.586L20.414 6.586C20.7891 6.96099 20.9999 7.46961 21 8M15 2H11C10.4696 2 9.96086 2.21071 9.58579 2.58579C9.21071 2.96086 9 3.46957 9 4V15C9 15.5304 9.21071 16.0391 9.58579 16.4142C9.96086 16.7893 10.4696 17 11 17H19C19.5304 17 20.0391 16.7893 20.4142 16.4142C20.7893 16.0391 21 15.5304 21 15V8M15 2V6C15 6.53043 15.2107 7.03914 15.5858 7.41421C15.9609 7.78929 16.4696 8 17 8H21M5 7C4.46957 7 3.96086 7.21071 3.58579 7.58579C3.21071 7.96086 3 8.46957 3 9V20C3 20.5304 3.21071 21.0391 3.58579 21.4142C3.96086 21.7893 4.46957 22 5 22H13C13.3511 22 13.6959 21.9076 14 21.732C14.304 21.5565 14.5565 21.304 14.732 21" stroke="black" stroke-width="2" stroke-linecap="round" stroke-linejoin="round"/>
</svg>
