<svg width="24" height="24" viewBox="0 0 24 24" fill="none" xmlns="http://www.w3.org/2000/svg">
<path d="M15.9998 17H19.9998M3.99976 13H7.99976M3.99967 16V13.62C3.99967 11.5 2.96967 10.5 2.99967 8C3.02967 5.28 4.48967 2 7.49967 2C9.36967 2 9.99967 3.8 9.99967 5.5C9.99967 8.61 7.99967 11.16 7.99967 14.18V16C7.99967 16.5304 7.78895 17.0391 7.41388 17.4142C7.03881 17.7893 6.5301 18 5.99967 18C5.46923 18 4.96053 17.7893 4.58545 17.4142C4.21038 17.0391 3.99967 16.5304 3.99967 16ZM19.9998 20V17.62C19.9998 15.5 21.0298 14.5 20.9998 12C20.9698 9.28 19.5098 6 16.4998 6C14.6298 6 13.9998 7.8 13.9998 9.5C13.9998 12.61 15.9998 15.16 15.9998 18.18V20C15.9998 20.5304 16.2105 21.0391 16.5855 21.4142C16.9606 21.7893 17.4693 22 17.9998 22C18.5302 22 19.0389 21.7893 19.414 21.4142C19.789 21.0391 19.9998 20.5304 19.9998 20Z" stroke="black" stroke-width="2" stroke-linecap="round" stroke-linejoin="round"/>
</svg>
