<svg width="24" height="24" viewBox="0 0 24 24" fill="none" xmlns="http://www.w3.org/2000/svg">
<path d="M13.3536 3H2.99964C2.80625 3.00007 2.61702 3.05622 2.45489 3.16164C2.29276 3.26706 2.16467 3.41723 2.08614 3.59396C2.00762 3.7707 1.98203 3.96641 2.01246 4.15739C2.0429 4.34837 2.12807 4.52643 2.25764 4.67L9.48264 12.659C9.81518 13.0265 9.99942 13.5044 9.99964 14V20C9.99955 20.1858 10.0512 20.368 10.1489 20.5261C10.2466 20.6842 10.3864 20.8119 10.5526 20.895L12.5526 21.895C12.7051 21.9712 12.8746 22.0072 13.0449 21.9994C13.2152 21.9917 13.3807 21.9406 13.5257 21.8509C13.6707 21.7613 13.7903 21.636 13.8733 21.4871C13.9562 21.3381 13.9997 21.1705 13.9996 21V14C13.9999 13.5044 14.1841 13.0265 14.5166 12.659L15.7346 11.311M15.9998 6H21.9998M18.9998 3V9" stroke="black" stroke-width="2" stroke-linecap="round" stroke-linejoin="round"/>
</svg>
