<svg width="24" height="24" viewBox="0 0 24 24" fill="none" xmlns="http://www.w3.org/2000/svg">
<path d="M11.5 21C10.081 20.9997 8.69111 20.5968 7.49188 19.8382C6.29266 19.0795 5.33327 17.9962 4.72514 16.7141C4.11701 15.432 3.8851 14.0036 4.05634 12.595C4.22758 11.1863 4.79494 9.85509 5.69254 8.75599C6.59013 7.6569 7.78112 6.835 9.12718 6.38576C10.4732 5.93652 11.9191 5.87837 13.2969 6.21806C14.6747 6.55776 15.9278 7.28136 16.9108 8.30483C17.8938 9.3283 18.5662 10.6096 18.85 12M13 12V3M4 21H20M9 12V3" stroke="black" stroke-width="2" stroke-linecap="round" stroke-linejoin="round"/>
</svg>
