<svg width="24" height="24" viewBox="0 0 24 24" fill="none" xmlns="http://www.w3.org/2000/svg">
<path d="M5.99976 12C6.86524 11.3509 7.9179 11 8.99976 11C10.0816 11 11.1343 11.3509 11.9998 12C12.8652 12.6491 13.9179 13 14.9998 13C16.0816 13 17.1343 12.6491 17.9998 12M5.11577 4.104C5.10121 3.96471 5.11606 3.82392 5.15937 3.69074C5.20268 3.55756 5.27348 3.43496 5.36719 3.33089C5.4609 3.22681 5.57542 3.14358 5.70334 3.08658C5.83126 3.02958 5.96973 3.00008 6.10977 3H17.8898C18.0299 3.00007 18.1685 3.02959 18.2965 3.08665C18.4245 3.14371 18.539 3.22703 18.6328 3.33122C18.7265 3.43541 18.7973 3.55813 18.8405 3.69143C18.8837 3.82473 18.8985 3.96564 18.8838 4.105L17.1898 20.21C17.1379 20.7015 16.9058 21.1564 16.5383 21.487C16.1709 21.8175 15.694 22.0003 15.1998 22H8.79977C8.3038 22.0027 7.82449 21.8211 7.45491 21.4903C7.08533 21.1595 6.85185 20.7032 6.79977 20.21L5.11577 4.104Z" stroke="black" stroke-width="2" stroke-linecap="round" stroke-linejoin="round"/>
</svg>
