<svg width="24" height="24" viewBox="0 0 24 24" fill="none" xmlns="http://www.w3.org/2000/svg">
<path d="M21.9998 10V16M5.99976 12.5V16C5.99976 16.7956 6.6319 17.5587 7.75712 18.1213C8.88233 18.6839 10.4085 19 11.9998 19C13.5911 19 15.1172 18.6839 16.2424 18.1213C17.3676 17.5587 17.9998 16.7956 17.9998 16V12.5M21.4198 10.9221C21.5988 10.8431 21.7507 10.7134 21.8567 10.5489C21.9627 10.3845 22.0181 10.1925 22.0161 9.99685C22.0141 9.8012 21.9547 9.61044 21.8454 9.4482C21.736 9.28596 21.5814 9.15937 21.4008 9.08411L12.8298 5.18011C12.5692 5.06126 12.2862 4.99976 11.9998 4.99976C11.7134 4.99976 11.4304 5.06126 11.1698 5.18011L2.5998 9.08011C2.42177 9.15809 2.27031 9.28625 2.16396 9.44893C2.05761 9.61161 2.00098 9.80176 2.00098 9.99611C2.00098 10.1905 2.05761 10.3806 2.16396 10.5433C2.27031 10.706 2.42177 10.8341 2.5998 10.9121L11.1698 14.8201C11.4304 14.939 11.7134 15.0005 11.9998 15.0005C12.2862 15.0005 12.5692 14.939 12.8298 14.8201L21.4198 10.9221Z" stroke="black" stroke-width="2" stroke-linecap="round" stroke-linejoin="round"/>
</svg>
