<svg width="24" height="24" viewBox="0 0 24 24" fill="none" xmlns="http://www.w3.org/2000/svg">
<path d="M11.8999 12.0999L16.4139 7.58594M16.4139 7.58594C16.789 7.21095 16.9999 6.70241 17.0001 6.17202V4.82802C17.0002 4.29763 17.211 3.789 17.5861 3.41402L18.7001 2.30002C18.887 2.11679 19.1383 2.01416 19.4001 2.01416C19.6618 2.01416 19.9131 2.11679 20.1001 2.30002L21.7001 3.90002C21.8833 4.08695 21.9859 4.33826 21.9859 4.60002C21.9859 4.86177 21.8833 5.11309 21.7001 5.30002L20.5861 6.41402C20.2111 6.78912 19.7025 6.9999 19.1721 7.00002H17.8281C17.2977 7.00013 16.7889 7.21084 16.4139 7.58594ZM6 16L8 18M8.23 9.85C8.45726 9.30244 8.84165 8.8345 9.33465 8.50524C9.82765 8.17597 10.4072 8.00016 11 8C12.3261 8 13.5979 8.52678 14.5355 9.46447C15.4732 10.4021 16 11.6739 16 13C15.9998 13.5928 15.824 14.1723 15.4948 14.6653C15.1655 15.1583 14.6976 15.5427 14.15 15.77L13.23 16.15C12.8651 16.3022 12.5534 16.5592 12.3345 16.8885C12.1156 17.2178 11.9992 17.6046 12 18C12 19.0609 11.5786 20.0783 10.8284 20.8284C10.0783 21.5786 9.06087 22 8 22C6.4087 22 4.88258 21.3679 3.75736 20.2426C2.63214 19.1174 2 17.5913 2 16C2 14.9391 2.42143 13.9217 3.17157 13.1716C3.92172 12.4214 4.93913 12 6 12C6.39542 12.0008 6.78221 11.8844 7.11149 11.6655C7.44077 11.4466 7.69776 11.1349 7.85 10.77L8.23 9.85Z" stroke="black" stroke-width="2" stroke-linecap="round" stroke-linejoin="round"/>
</svg>
