<svg width="24" height="24" viewBox="0 0 24 24" fill="none" xmlns="http://www.w3.org/2000/svg">
<path d="M13.5 8H10.5M15 2L14 4H17C17.5304 4 18.0391 4.21071 18.4142 4.58579C18.7893 4.96086 19 5.46957 19 6V20C19 20.5304 18.7893 21.0391 18.4142 21.4142C18.0391 21.7893 17.5304 22 17 22H7C6.46957 22 5.96086 21.7893 5.58579 21.4142C5.21071 21.0391 5 20.5304 5 20V6C5 5.46957 5.21071 4.96086 5.58579 4.58579C5.96086 4.21071 6.46957 4 7 4H10M16.8991 22.0001C16.6691 20.8704 16.0557 19.8548 15.1629 19.1254C14.27 18.396 13.1525 17.9976 11.9996 17.9976C10.8467 17.9976 9.72917 18.396 8.83631 19.1254C7.94345 19.8548 7.33009 20.8704 7.1001 22.0001M9 2L12 8M15 15C15 16.6569 13.6569 18 12 18C10.3431 18 9 16.6569 9 15C9 13.3431 10.3431 12 12 12C13.6569 12 15 13.3431 15 15Z" stroke="black" stroke-width="2" stroke-linecap="round" stroke-linejoin="round"/>
</svg>
