<svg width="24" height="24" viewBox="0 0 24 24" fill="none" xmlns="http://www.w3.org/2000/svg">
<path d="M14 7L17 10M9.4 10.6001L2.586 17.4141C2.2109 17.7891 2.00011 18.2977 2 18.8281V21.0001C2 21.2653 2.10536 21.5197 2.29289 21.7072C2.48043 21.8947 2.73478 22.0001 3 22.0001H6C6.26522 22.0001 6.51957 21.8947 6.70711 21.7072C6.89464 21.5197 7 21.2653 7 21.0001V20.0001C7 19.7349 7.10536 19.4805 7.29289 19.293C7.48043 19.1055 7.73478 19.0001 8 19.0001H9C9.26522 19.0001 9.51957 18.8947 9.70711 18.7072C9.89464 18.5197 10 18.2653 10 18.0001V17.0001C10 16.7349 10.1054 16.4805 10.2929 16.293C10.4804 16.1055 10.7348 16.0001 11 16.0001H11.172C11.7024 16 12.211 15.7892 12.586 15.4141L13.4 14.6001M12.4001 2.69993C12.8623 2.27119 13.4696 2.03296 14.1001 2.03296C14.7305 2.03296 15.3378 2.27119 15.8001 2.69993L21.3 8.19993C21.7288 8.66222 21.967 9.26943 21.967 9.89993C21.967 10.5304 21.7288 11.1376 21.3 11.5999L17.6001 15.2999C17.1378 15.7287 16.5305 15.9669 15.9001 15.9669C15.2696 15.9669 14.6623 15.7287 14.2001 15.2999L8.70005 9.79993C8.27131 9.33764 8.03308 8.73043 8.03308 8.09993C8.03308 7.46943 8.27131 6.86222 8.70005 6.39993L12.4001 2.69993Z" stroke="black" stroke-width="2" stroke-linecap="round" stroke-linejoin="round"/>
</svg>
