<svg width="24" height="24" viewBox="0 0 24 24" fill="none" xmlns="http://www.w3.org/2000/svg">
<path d="M12.0002 10V22M9.00024 22H15.0002M17.9293 7.629C17.99 7.78075 18.0125 7.94505 17.9949 8.10752C17.9773 8.26999 17.9202 8.42567 17.8286 8.56096C17.7369 8.69624 17.6135 8.80699 17.4691 8.88353C17.3247 8.96007 17.1638 9.00006 17.0003 9H7.00034C6.83701 8.9999 6.67619 8.95979 6.53194 8.88318C6.38769 8.80657 6.2644 8.6958 6.17285 8.56054C6.0813 8.42528 6.02427 8.26966 6.00675 8.10727C5.98923 7.94488 6.01175 7.78067 6.07234 7.629L8.07234 2.629C8.14648 2.44344 8.2745 2.28434 8.43991 2.17223C8.60532 2.06011 8.80052 2.00013 9.00034 2H15.0003C15.2002 2.00013 15.3954 2.06011 15.5608 2.17223C15.7262 2.28434 15.8542 2.44344 15.9283 2.629L17.9293 7.629Z" stroke="black" stroke-width="2" stroke-linecap="round" stroke-linejoin="round"/>
</svg>
