<svg width="24" height="24" viewBox="0 0 24 24" fill="none" xmlns="http://www.w3.org/2000/svg">
<path d="M3.704 14.467C2.59325 13.1467 1.99997 11.5914 2 10C2 7.87827 3.05357 5.84344 4.92893 4.34315C6.8043 2.84285 9.34784 2 12 2C14.6522 2 17.1957 2.84285 19.0711 4.34315C20.9464 5.84344 22 7.87827 22 10C22 12.1217 20.9464 14.1566 19.0711 15.6569C17.1957 17.1571 14.6522 18 12 18C10.1732 17.9998 8.38137 17.5993 6.819 16.842M7 22.0001C6.37983 21.535 5.87631 20.932 5.5292 20.2389C5.1821 19.5457 5.00093 18.7813 5 18.0061M7 16C7 17.1046 6.10457 18 5 18C3.89543 18 3 17.1046 3 16C3 14.8954 3.89543 14 5 14C6.10457 14 7 14.8954 7 16Z" stroke="black" stroke-width="2" stroke-linecap="round" stroke-linejoin="round"/>
</svg>
