<svg width="24" height="24" viewBox="0 0 24 24" fill="none" xmlns="http://www.w3.org/2000/svg">
<path d="M1.99956 22C3.24956 21.013 4.26956 20.025 5.89956 19.8C7.31068 19.7997 8.66913 20.3359 9.69956 21.3C10.2343 21.6746 10.8526 21.9126 11.5005 21.9933C12.1484 22.0739 12.8062 21.9947 13.4164 21.7626C14.0267 21.5306 14.5708 21.1526 15.0014 20.6618C15.432 20.171 15.7359 19.5823 15.8866 18.947C16.5354 19.0627 17.2037 18.9928 17.8145 18.7455C18.4254 18.4981 18.954 18.0833 19.3395 17.5488C19.725 17.0143 19.9518 16.3818 19.9938 15.7241C20.0357 15.0664 19.8911 14.4102 19.5766 13.831C20.1498 13.6458 20.6656 13.3158 21.0739 12.8729C21.4822 12.4299 21.7693 11.8891 21.9074 11.3027C22.0455 10.7163 22.0299 10.1042 21.8621 9.52564C21.6943 8.94705 21.38 8.42157 20.9496 8.00004C21.2746 7.67502 21.5324 7.28916 21.7083 6.8645C21.8842 6.43984 21.9747 5.98469 21.9747 5.52504C21.9747 5.06539 21.8842 4.61024 21.7083 4.18558C21.5324 3.76092 21.2746 3.37506 20.9496 3.05004C20.6245 2.72502 20.2387 2.4672 19.814 2.2913C19.3894 2.1154 18.9342 2.02486 18.4746 2.02486C17.5463 2.02486 16.656 2.39363 15.9996 3.05004C15.578 2.61965 15.0525 2.30534 14.474 2.13754C13.8954 1.96974 13.2833 1.95412 12.6969 2.09219C12.1105 2.23027 11.5696 2.51736 11.1267 2.9257C10.6838 3.33403 10.3538 3.84978 10.1686 4.42304C9.58941 4.10852 8.93323 3.96391 8.27552 4.00584C7.61781 4.04778 6.98531 4.27456 6.4508 4.66009C5.91628 5.04561 5.50148 5.57422 5.25412 6.18508C5.00675 6.79594 4.93689 7.46423 5.05256 8.11304C4.42282 8.2664 3.83977 8.5705 3.35362 8.99915C2.86746 9.4278 2.49274 9.96818 2.26173 10.5738C2.03071 11.1793 1.95031 11.832 2.02746 12.4755C2.1046 13.1191 2.33696 13.7342 2.70456 14.268C3.49856 15.42 4.40856 16.712 4.19956 18.1C3.92556 19.743 3.01356 20.732 1.99956 22ZM1.99956 22L16.9996 7" stroke="black" stroke-width="2" stroke-linecap="round" stroke-linejoin="round"/>
</svg>
