<svg width="24" height="24" viewBox="0 0 24 24" fill="none" xmlns="http://www.w3.org/2000/svg">
<path d="M12 12H3M12 18H3M16 6H3M21.033 14.4399C21.1312 14.4968 21.2127 14.5784 21.2694 14.6767C21.3261 14.775 21.356 14.8865 21.356 14.9999C21.356 15.1134 21.3261 15.2249 21.2694 15.3231C21.2127 15.4214 21.1312 15.5031 21.033 15.5599L16.968 17.9119C16.8698 17.9687 16.7584 17.9986 16.645 17.9986C16.5316 17.9986 16.4202 17.9687 16.322 17.9119C16.2238 17.8551 16.1424 17.7735 16.0858 17.6751C16.0293 17.5768 15.9997 17.4653 16 17.3519V12.6479C15.9997 12.5345 16.0293 12.423 16.0858 12.3247C16.1424 12.2264 16.2238 12.1447 16.322 12.0879C16.4202 12.0311 16.5316 12.0012 16.645 12.0012C16.7584 12.0012 16.8698 12.0311 16.968 12.0879L21.033 14.4399Z" stroke="black" stroke-width="2" stroke-linecap="round" stroke-linejoin="round"/>
</svg>
