<svg width="24" height="24" viewBox="0 0 24 24" fill="none" xmlns="http://www.w3.org/2000/svg">
<path d="M11.9999 15L15.9999 19M4.99988 8L8.99988 12M2.3519 10.6481C2.12595 10.8741 1.99902 11.1805 1.99902 11.5001C1.99902 11.8196 2.12595 12.1261 2.3519 12.3521L4.6479 14.6481C4.87387 14.874 5.18034 15.001 5.4999 15.001C5.81945 15.001 6.12592 14.874 6.3519 14.6481L12.3809 8.61909C12.5779 8.42211 12.8117 8.26585 13.0691 8.15925C13.3265 8.05264 13.6023 7.99777 13.8809 7.99777C14.1595 7.99777 14.4353 8.05264 14.6927 8.15925C14.9501 8.26585 15.1839 8.42211 15.3809 8.61909C15.5779 8.81608 15.7341 9.04993 15.8407 9.3073C15.9473 9.56467 16.0022 9.84052 16.0022 10.1191C16.0022 10.3977 15.9473 10.6735 15.8407 10.9309C15.7341 11.1883 15.5779 11.4221 15.3809 11.6191L9.3519 17.6481C9.12595 17.8741 8.99902 18.1805 8.99902 18.5001C8.99902 18.8196 9.12595 19.1261 9.3519 19.3521L11.6479 21.6481C11.8739 21.874 12.1803 22.001 12.4999 22.001C12.8195 22.001 13.1259 21.874 13.3519 21.6481L19.7169 15.2811C21.1755 13.8223 21.9948 11.8438 21.9946 9.78089C21.9944 7.71799 21.1747 5.73965 19.7159 4.28109C18.9936 3.55889 18.136 2.98603 17.1923 2.59523C16.2486 2.20442 15.2371 2.00333 14.2157 2.00342C12.1528 2.00361 10.1745 2.82327 8.7159 4.28209L2.3519 10.6481Z" stroke="black" stroke-width="2" stroke-linecap="round" stroke-linejoin="round"/>
</svg>
