<svg width="24" height="24" viewBox="0 0 24 24" fill="none" xmlns="http://www.w3.org/2000/svg">
<path d="M12.75 7.09009C13.2705 7.22368 13.7455 7.49461 14.1255 7.87458C14.5055 8.25455 14.7764 8.7296 14.91 9.25009M17.072 17.0719C15.438 19.2419 13.545 20.9839 12.601 21.7989C12.4277 21.9292 12.2168 21.9996 12 21.9996C11.7832 21.9996 11.5723 21.9292 11.399 21.7989C9.539 20.1929 4 14.9929 4 9.99988C3.99988 8.36675 4.4996 6.77269 5.432 5.43188M2 2L22 22M8.47498 2.81798C9.69468 2.2193 11.0468 1.94113 12.4037 2.00971C13.7607 2.07828 15.0779 2.49134 16.231 3.20994C17.3841 3.92853 18.3353 4.92898 18.9947 6.11696C19.6541 7.30493 20.0001 8.64127 20 9.99998C20 11.183 19.69 12.377 19.19 13.533M9.13004 9.12988C8.9729 9.64948 8.95968 10.202 9.0918 10.7285C9.22392 11.255 9.49642 11.7358 9.88027 12.1197C10.2641 12.5035 10.7449 12.776 11.2714 12.9081C11.7979 13.0402 12.3504 13.027 12.87 12.8699" stroke="black" stroke-width="2" stroke-linecap="round" stroke-linejoin="round"/>
</svg>
