<svg width="24" height="24" viewBox="0 0 24 24" fill="none" xmlns="http://www.w3.org/2000/svg">
<path d="M19.0005 19.0001H6.82845C6.29806 19.0002 5.78944 19.211 5.41445 19.5861L3.21245 21.7881C3.11522 21.8926 2.98836 21.9648 2.84889 21.9952C2.70942 22.0256 2.56401 22.0126 2.43213 21.9579C2.30026 21.9033 2.18824 21.8097 2.11108 21.6896C2.03393 21.5695 1.99533 21.4287 2.00045 21.2861V5.00007C2.00044 4.61389 2.11224 4.23596 2.32235 3.91193C2.53245 3.58791 2.83187 3.33164 3.18445 3.17407M2.00049 2L22.0005 22M8.65649 3H20.0005C20.5309 3 21.0396 3.21071 21.4147 3.58579C21.7898 3.96086 22.0005 4.46957 22.0005 5V16.344" stroke="black" stroke-width="2" stroke-linecap="round" stroke-linejoin="round"/>
</svg>
