<svg width="24" height="24" viewBox="0 0 24 24" fill="none" xmlns="http://www.w3.org/2000/svg">
<path d="M2.99169 16.3419C3.13873 16.7129 3.17147 17.1193 3.08569 17.5089L2.02069 20.7989C1.98638 20.9658 1.99525 21.1386 2.04647 21.3011C2.09769 21.4635 2.18955 21.6102 2.31336 21.7272C2.43716 21.8442 2.5888 21.9276 2.75389 21.9696C2.91898 22.0115 3.09205 22.0106 3.25669 21.9669L6.66969 20.9689C7.03741 20.896 7.41822 20.9279 7.76869 21.0609C9.90408 22.0582 12.3231 22.2691 14.5988 21.6567C16.8746 21.0442 18.861 19.6476 20.2074 17.7133C21.5538 15.779 22.1738 13.4313 21.958 11.0845C21.7422 8.73763 20.7044 6.54241 19.0278 4.88613C17.3511 3.22986 15.1434 2.21898 12.7941 2.03183C10.4448 1.84469 8.10483 2.49332 6.18713 3.86328C4.26944 5.23323 2.89722 7.23648 2.31258 9.51958C1.72795 11.8027 1.96846 14.2189 2.99169 16.3419Z" stroke="black" stroke-width="2" stroke-linecap="round" stroke-linejoin="round"/>
<path d="M7.82784 13.0701C7.29177 12.5094 6.99376 11.7628 6.99635 10.987C6.99895 10.2113 7.30195 9.46666 7.84176 8.90951C8.38157 8.35236 9.11621 8.02599 9.8915 7.99887C10.6668 7.97176 11.4224 8.24603 11.9998 8.76411C12.4306 8.37743 12.964 8.12363 13.5358 8.03332C14.1076 7.94301 14.6933 8.02005 15.2223 8.25515C15.7512 8.49025 16.2009 8.87337 16.517 9.35829C16.8331 9.84322 17.0022 10.4092 17.0038 10.9881C17.0063 11.7639 16.7081 12.5105 16.1718 13.0711L12.7248 16.6911C12.6314 16.7894 12.5188 16.8676 12.3942 16.921C12.2695 16.9745 12.1353 17.002 11.9996 17.0019C11.864 17.0018 11.7298 16.9741 11.6052 16.9205C11.4806 16.8669 11.3682 16.7885 11.2748 16.6901L7.82784 13.0701Z" stroke="black" stroke-width="2" stroke-linecap="round" stroke-linejoin="round"/>
</svg>
