<svg width="24" height="24" viewBox="0 0 24 24" fill="none" xmlns="http://www.w3.org/2000/svg">
<path d="M2 2L22 22M4.92999 4.92896C3.46348 6.39536 2.48917 8.28143 2.14195 10.326C1.79473 12.3707 2.09179 14.4726 2.99199 16.341C3.13903 16.7119 3.17177 17.1183 3.08599 17.508L2.02099 20.798C1.98668 20.9648 1.99555 21.1376 2.04677 21.3001C2.09799 21.4626 2.18985 21.6092 2.31366 21.7262C2.43746 21.8432 2.5891 21.9267 2.75419 21.9686C2.91928 22.0106 3.09235 22.0096 3.25699 21.966L6.66999 20.968C7.03771 20.895 7.41852 20.9269 7.76899 21.06C9.62919 21.9287 11.7117 22.2038 13.7337 21.848C15.7557 21.4922 17.6191 20.5226 19.071 19.071M8.3501 2.6899C10.1607 1.98272 12.1382 1.81858 14.0406 2.21754C15.9431 2.61651 17.688 3.56128 19.062 4.9363C20.4359 6.31133 21.3793 8.05698 21.7768 9.95972C22.1743 11.8625 22.0087 13.8398 21.3001 15.6499" stroke="black" stroke-width="2" stroke-linecap="round" stroke-linejoin="round"/>
</svg>
