<svg width="24" height="24" viewBox="0 0 24 24" fill="none" xmlns="http://www.w3.org/2000/svg">
<path d="M12 19H12.01M12 3H12.01M16 19H16.01M16 3H16.01M2 13H2.01M2 17V21.286C2.00002 21.4264 2.04167 21.5637 2.11969 21.6804C2.1977 21.7971 2.30858 21.8881 2.43831 21.9419C2.56803 21.9956 2.71077 22.0097 2.84849 21.9823C2.9862 21.9549 3.1127 21.8873 3.212 21.788L5.414 19.586C5.78899 19.2109 6.29761 19.0001 6.828 19H8M2 5C2 4.46957 2.21071 3.96086 2.58579 3.58579C2.96086 3.21071 3.46957 3 4 3M2 9H2.01M20 3C20.5304 3 21.0391 3.21071 21.4142 3.58579C21.7893 3.96086 22 4.46957 22 5M22 13H22.01M22 17C22 17.5304 21.7893 18.0391 21.4142 18.4142C21.0391 18.7893 20.5304 19 20 19M22 9H22.01M8 3H8.01" stroke="black" stroke-width="2" stroke-linecap="round" stroke-linejoin="round"/>
</svg>
