<svg width="24" height="24" viewBox="0 0 24 24" fill="none" xmlns="http://www.w3.org/2000/svg">
<path d="M10.1003 2.18191C11.3554 1.93904 12.6453 1.93904 13.9003 2.18191M13.9003 21.8181C12.6453 22.061 11.3554 22.061 10.1003 21.8181M17.6091 3.71997C18.6706 4.43919 19.5839 5.35584 20.2991 6.41997M2.18216 13.9001C1.93928 12.6451 1.93928 11.3551 2.18216 10.1001M20.2803 17.6101C19.5611 18.6716 18.6445 19.5848 17.5803 20.3001M21.8184 10.1001C22.0612 11.3551 22.0612 12.6451 21.8184 13.9001M3.72119 6.39093C4.44041 5.32946 5.35706 4.41621 6.42119 3.70093M6.16321 21.1171L3.25721 21.9671C3.09247 22.0109 2.91929 22.0118 2.75409 21.9698C2.5889 21.9278 2.43718 21.8443 2.31335 21.7272C2.18951 21.61 2.09767 21.4632 2.04654 21.3006C1.99541 21.138 1.98669 20.965 2.02121 20.7981L2.98621 17.8181" stroke="black" stroke-width="2" stroke-linecap="round" stroke-linejoin="round"/>
</svg>
