<svg width="24" height="24" viewBox="0 0 24 24" fill="none" xmlns="http://www.w3.org/2000/svg">
<path d="M11.8004 11.8L20.2004 20.2001M2.03442 2.68093C1.99837 2.59049 1.98962 2.49147 2.00925 2.39611C2.02889 2.30075 2.07604 2.21324 2.14488 2.1444C2.21373 2.07555 2.30124 2.0284 2.3966 2.00877C2.49196 1.98913 2.59098 1.99788 2.68142 2.03393L11.6814 5.53393C11.7783 5.57143 11.861 5.63816 11.9182 5.72485C11.9754 5.81153 12.0042 5.91388 12.0006 6.01767C11.9969 6.12146 11.9611 6.22154 11.898 6.30402C11.8349 6.3865 11.7476 6.44729 11.6484 6.47793L8.20442 7.54493C8.04903 7.59297 7.9077 7.6782 7.79269 7.7932C7.67768 7.90821 7.59246 8.04954 7.54442 8.20493L6.47842 11.6479C6.44777 11.7472 6.38699 11.8344 6.30451 11.8975C6.22203 11.9606 6.12194 11.9965 6.01815 12.0001C5.91436 12.0037 5.81202 11.9749 5.72533 11.9177C5.63865 11.8605 5.57192 11.7778 5.53442 11.6809L2.03442 2.68093ZM22.0004 16C22.0004 19.3137 19.3141 22 16.0004 22C12.6867 22 10.0004 19.3137 10.0004 16C10.0004 12.6863 12.6867 10 16.0004 10C19.3141 10 22.0004 12.6863 22.0004 16Z" stroke="black" stroke-width="2" stroke-linecap="round" stroke-linejoin="round"/>
</svg>
