<svg width="24" height="24" viewBox="0 0 24 24" fill="none" xmlns="http://www.w3.org/2000/svg">
<path d="M14.0002 4.1001L12.0002 6.0001M5.1002 7.99995L2.2002 7.19995M6.00016 12L4.10016 14M7.2002 2.19995L8.0002 5.09995M9.03721 9.68991C8.99844 9.59856 8.98783 9.49771 9.00677 9.4003C9.0257 9.30288 9.07331 9.21335 9.14348 9.14318C9.21365 9.073 9.30319 9.0254 9.4006 9.00646C9.49802 8.98753 9.59886 8.99813 9.69021 9.03691L20.6902 13.5369C20.7881 13.5771 20.8707 13.6473 20.9262 13.7374C20.9817 13.8275 21.0072 13.9329 20.9989 14.0384C20.9907 14.1439 20.9492 14.244 20.8804 14.3245C20.8117 14.4049 20.7192 14.4614 20.6162 14.4859L16.2672 15.5269C16.0877 15.5698 15.9235 15.6615 15.7929 15.792C15.6623 15.9224 15.5703 16.0864 15.5272 16.2659L14.4872 20.6159C14.463 20.7192 14.4065 20.8121 14.326 20.8812C14.2455 20.9503 14.145 20.9919 14.0393 21.0002C13.9335 21.0084 13.8278 20.9828 13.7376 20.927C13.6473 20.8712 13.5772 20.7882 13.5372 20.6899L9.03721 9.68991Z" stroke="black" stroke-width="2" stroke-linecap="round" stroke-linejoin="round"/>
</svg>
