<svg width="24" height="24" viewBox="0 0 24 24" fill="none" xmlns="http://www.w3.org/2000/svg">
<path d="M20.3414 6.48389C21.4202 8.11454 21.9973 10.0257 22.0014 11.9809C22.0054 13.9361 21.4362 15.8496 20.3641 17.4847C19.292 19.1198 17.7641 20.4047 15.9694 21.1806C14.1747 21.9564 12.1919 22.1891 10.2664 21.8499M3.65931 17.5161C2.5805 15.885 2.00361 13.9734 2.00002 12.0179C1.99643 10.0623 2.5663 8.1486 3.63912 6.51357C4.71193 4.87854 6.2406 3.59395 8.03596 2.81875C9.83133 2.04356 11.8146 1.81179 13.7403 2.15211M15.0002 12C15.0002 13.6569 13.6571 15 12.0002 15C10.3434 15 9.00024 13.6569 9.00024 12C9.00024 10.3431 10.3434 9 12.0002 9C13.6571 9 15.0002 10.3431 15.0002 12ZM21.0002 5C21.0002 6.10457 20.1048 7 19.0002 7C17.8957 7 17.0002 6.10457 17.0002 5C17.0002 3.89543 17.8957 3 19.0002 3C20.1048 3 21.0002 3.89543 21.0002 5ZM7.00024 19C7.00024 20.1046 6.10481 21 5.00024 21C3.89567 21 3.00024 20.1046 3.00024 19C3.00024 17.8954 3.89567 17 5.00024 17C6.10481 17 7.00024 17.8954 7.00024 19Z" stroke="black" stroke-width="2" stroke-linecap="round" stroke-linejoin="round"/>
</svg>
