<svg width="24" height="24" viewBox="0 0 24 24" fill="none" xmlns="http://www.w3.org/2000/svg">
<path d="M4.99982 2L9.99982 7M1.99982 13H16.9998M18.9998 11L10.9998 3L2.39984 11.6C2.03339 11.9739 1.82813 12.4765 1.82812 13C1.82813 13.5235 2.03339 14.0261 2.39984 14.4L7.59984 19.6C8.39984 20.4 9.59984 20.4 10.3998 19.6L18.9998 11ZM21.9998 20C21.9998 20.5304 21.7891 21.0391 21.414 21.4142C21.039 21.7893 20.5302 22 19.9998 22C19.4694 22 18.9607 21.7893 18.5856 21.4142C18.2105 21.0391 17.9998 20.5304 17.9998 20C17.9998 18.4 19.6998 17.6 19.9998 16C20.2998 17.6 21.9998 18.4 21.9998 20Z" stroke="black" stroke-width="2" stroke-linecap="round" stroke-linejoin="round"/>
</svg>
