<svg width="24" height="24" viewBox="0 0 24 24" fill="none" xmlns="http://www.w3.org/2000/svg">
<path d="M14.9998 12L16.9998 14M17.9998 6.5C17.9998 6.36739 17.9471 6.24021 17.8533 6.14645C17.7595 6.05268 17.6324 6 17.4998 6M20.6897 9.67001C21.1398 9.21926 21.489 8.67811 21.7143 8.08233C21.9396 7.48656 22.0359 6.84974 21.9968 6.21398C21.9576 5.57822 21.784 4.95802 21.4873 4.39438C21.1906 3.83074 20.7776 3.33651 20.2757 2.94437C19.7737 2.55223 19.1943 2.27111 18.5756 2.11962C17.9569 1.96812 17.3131 1.94969 16.6868 2.06554C16.0604 2.1814 15.4658 2.4289 14.9423 2.79168C14.4187 3.15447 13.9782 3.62426 13.6497 4.17001C12.5607 3.95048 11.4388 3.95048 10.3497 4.17001C10.0213 3.62426 9.58068 3.15447 9.05713 2.79168C8.53358 2.4289 7.93898 2.1814 7.31264 2.06554C6.68631 1.94969 6.04251 1.96812 5.42383 2.11962C4.80515 2.27111 4.22568 2.55223 3.72374 2.94437C3.2218 3.33651 2.80883 3.83074 2.51214 4.39438C2.21544 4.95802 2.04178 5.57822 2.00264 6.21398C1.96351 6.84974 2.05978 7.48656 2.2851 8.08233C2.51042 8.67811 2.85966 9.21926 3.30971 9.67001C2.48971 11.2 1.99971 12.88 1.99971 14.5C1.99971 19.47 6.47971 22 11.9997 22C17.5197 22 21.9997 19.47 21.9997 14.5C21.9997 12.88 21.5197 11.2 20.6997 9.67001M5.99978 6.50003C5.99911 6.43418 6.01159 6.36886 6.03648 6.3079C6.06137 6.24693 6.09818 6.19154 6.14474 6.14498C6.1913 6.09842 6.24669 6.06161 6.30765 6.03672C6.36862 6.01183 6.43393 5.99936 6.49978 6.00003M8.99976 12L6.99976 14M11.2498 17.25H12.7498L11.9998 18L11.2498 17.25Z" stroke="black" stroke-width="2" stroke-linecap="round" stroke-linejoin="round"/>
</svg>
