<svg width="24" height="24" viewBox="0 0 24 24" fill="none" xmlns="http://www.w3.org/2000/svg">
<path d="M12.9998 7.00005L8.6998 2.70005C8.24818 2.2506 7.63695 1.99829 6.9998 1.99829C6.36265 1.99829 5.75143 2.2506 5.2998 2.70005L2.6998 5.30005C2.25036 5.75167 1.99805 6.36289 1.99805 7.00005C1.99805 7.6372 2.25036 8.24842 2.6998 8.70005L6.9998 13M7.99976 6L9.99976 4M17.9998 16L19.9998 14M16.9998 11L21.2998 15.3C22.2398 16.24 22.2398 17.76 21.2998 18.7L18.6998 21.3C17.7598 22.24 16.2398 22.24 15.2998 21.3L10.9998 17M14.9998 5L18.9998 9M21.1737 6.81189C21.7024 6.28332 21.9995 5.56636 21.9996 4.81875C21.9997 4.07113 21.7028 3.3541 21.1742 2.82539C20.6456 2.29668 19.9287 1.99961 19.181 1.99951C18.4334 1.99942 17.7164 2.29632 17.1877 2.82489L3.84169 16.1739C3.60951 16.4054 3.4378 16.6904 3.34169 17.0039L2.02069 21.3559C1.99485 21.4424 1.99289 21.5342 2.01504 21.6217C2.03719 21.7092 2.08261 21.7891 2.14649 21.8529C2.21036 21.9167 2.29031 21.962 2.37785 21.984C2.46539 22.006 2.55725 22.0039 2.64369 21.9779L6.99669 20.6579C7.30986 20.5626 7.59486 20.392 7.82669 20.1609L21.1737 6.81189Z" stroke="black" stroke-width="2" stroke-linecap="round" stroke-linejoin="round"/>
</svg>
