<svg width="24" height="24" viewBox="0 0 24 24" fill="none" xmlns="http://www.w3.org/2000/svg">
<path d="M14.0002 13L5.61924 21.38C5.42226 21.5771 5.1884 21.7334 4.931 21.8401C4.6736 21.9467 4.39772 22.0017 4.1191 22.0017C3.5564 22.0018 3.0167 21.7783 2.61874 21.3805C2.22079 20.9827 1.99716 20.4431 1.99707 19.8804C1.99698 19.3177 2.22042 18.778 2.61824 18.38L11.0002 9.99902M15.9732 4.02702C14.493 3.08619 12.8376 2.45464 11.1068 2.17039C9.37608 1.88614 7.60568 1.95506 5.90225 2.37302C4.50425 2.71502 4.81025 4.53102 6.17925 4.97402C8.27385 5.65298 10.2412 6.67486 12.0012 7.99802M16.0012 11.9991C17.3246 13.7597 18.3465 15.7278 19.0252 17.8231C19.4692 19.1921 21.2852 19.4991 21.6282 18.1011C22.0445 16.4053 22.1149 14.643 21.8352 12.9194C21.5555 11.1958 20.9314 9.54622 20.0002 8.06909M18.3523 3.3519C18.1263 3.12595 17.8198 2.99902 17.5003 2.99902C17.1807 2.99902 16.8742 3.12595 16.6483 3.3519L11.3523 8.6479C11.1263 8.87387 10.9994 9.18034 10.9994 9.4999C10.9994 9.81945 11.1263 10.1259 11.3523 10.3519L13.6483 12.6479C13.8742 12.8738 14.1807 13.0008 14.5003 13.0008C14.8198 13.0008 15.1263 12.8738 15.3523 12.6479L20.6483 7.3519C20.8742 7.12592 21.0011 6.81945 21.0011 6.4999C21.0011 6.18034 20.8742 5.87387 20.6483 5.6479L18.3523 3.3519Z" stroke="black" stroke-width="2" stroke-linecap="round" stroke-linejoin="round"/>
</svg>
