<svg width="24" height="24" viewBox="0 0 24 24" fill="none" xmlns="http://www.w3.org/2000/svg">
<path d="M11.9999 9L3.58594 17.414C3.21084 17.789 3.00005 18.2976 2.99994 18.828V20.172C2.99983 20.7024 2.78904 21.211 2.41394 21.586M2.41394 21.586C2.78893 21.2109 3.29755 21.0001 3.82794 21H5.17194C5.70233 20.9999 6.21095 20.7891 6.58594 20.414L14.9999 12M2.41394 21.586L2 21.9999M18 9.00008L18.4 9.40008C18.5969 9.59706 18.7532 9.83092 18.8598 10.0883C18.9664 10.3457 19.0213 10.6215 19.0213 10.9001C19.0213 11.1787 18.9664 11.4545 18.8598 11.7119C18.7532 11.9692 18.5969 12.2031 18.4 12.4001C18.203 12.5971 17.9691 12.7533 17.7118 12.8599C17.4544 12.9665 17.1785 13.0214 16.9 13.0214C16.6214 13.0214 16.3455 12.9665 16.0882 12.8599C15.8308 12.7533 15.5969 12.5971 15.4 12.4001L11.6 8.60008C11.2021 8.20226 10.9786 7.66269 10.9786 7.10008C10.9786 6.8215 11.0335 6.54566 11.1401 6.28829C11.2467 6.03092 11.403 5.79706 11.6 5.60008C11.7969 5.4031 12.0308 5.24684 12.2882 5.14024C12.5455 5.03363 12.8214 4.97876 13.1 4.97876C13.6626 4.97876 14.2021 5.20226 14.6 5.60008L15 6.00008L18.4 2.60008C18.7978 2.20226 19.3373 1.97876 19.9 1.97876C20.4626 1.97876 21.0021 2.20226 21.4 2.60008C21.7978 2.9979 22.0213 3.53747 22.0213 4.10008C22.0213 4.66269 21.7978 5.20226 21.4 5.60008L18 9.00008Z" stroke="black" stroke-width="2" stroke-linecap="round" stroke-linejoin="round"/>
</svg>
