<svg width="24" height="24" viewBox="0 0 24 24" fill="none" xmlns="http://www.w3.org/2000/svg">
<path d="M8 10L12 14L16 10M20 3C20.5304 3 21.0391 3.21071 21.4142 3.58579C21.7893 3.96086 22 4.46957 22 5V11C22 13.6522 20.9464 16.1957 19.0711 18.0711C17.1957 19.9464 14.6522 21 12 21C9.34784 21 6.8043 19.9464 4.92893 18.0711C3.05357 16.1957 2 13.6522 2 11V5C2 4.46957 2.21071 3.96086 2.58579 3.58579C2.96086 3.21071 3.46957 3 4 3H20Z" stroke="black" stroke-width="2" stroke-linecap="round" stroke-linejoin="round"/>
</svg>
