<svg width="24" height="24" viewBox="0 0 24 24" fill="none" xmlns="http://www.w3.org/2000/svg">
<path d="M15.3899 4.38997C15.5156 4.5158 15.6726 4.60582 15.8446 4.65077C16.0167 4.69571 16.1977 4.69394 16.3689 4.64564C16.54 4.59735 16.6952 4.50427 16.8185 4.37601C16.9417 4.24775 17.0285 4.08894 17.0699 3.91597C17.1737 3.48386 17.3908 3.08724 17.6988 2.76694C18.0069 2.44665 18.3947 2.21425 18.8225 2.09369C19.2502 1.97313 19.7023 1.96876 20.1323 2.08104C20.5623 2.19331 20.9546 2.41817 21.2688 2.73246C21.5829 3.04675 21.8077 3.4391 21.9198 3.86912C22.0319 4.29913 22.0274 4.75127 21.9067 5.17896C21.786 5.60665 21.5535 5.99443 21.2331 6.30238C20.9127 6.61033 20.516 6.8273 20.0839 6.93097C19.9109 6.97236 19.7521 7.05915 19.6238 7.18237C19.4956 7.30559 19.4025 7.46078 19.3542 7.63196C19.3059 7.80314 19.3041 7.9841 19.3491 8.15619C19.394 8.32828 19.484 8.48526 19.6099 8.61097L21.2929 10.293C21.517 10.5171 21.6949 10.7833 21.8162 11.0761C21.9375 11.369 22 11.6829 22 12C22 12.317 21.9375 12.6309 21.8162 12.9238C21.6949 13.2167 21.517 13.4828 21.2929 13.707L19.6099 15.39C19.4842 15.5158 19.3272 15.6058 19.1551 15.6508C18.983 15.6957 18.802 15.6939 18.6309 15.6456C18.4597 15.5973 18.3045 15.5043 18.1813 15.376C18.058 15.2477 17.9713 15.0889 17.9299 14.916C17.8261 14.4839 17.609 14.0872 17.3009 13.7669C16.9928 13.4466 16.605 13.2142 16.1773 13.0937C15.7495 12.9731 15.2974 12.9688 14.8674 13.081C14.4374 13.1933 14.0451 13.4182 13.731 13.7325C13.4168 14.0467 13.1921 14.4391 13.0799 14.8691C12.9678 15.2991 12.9723 15.7513 13.093 16.179C13.2137 16.6066 13.4462 16.9944 13.7666 17.3024C14.087 17.6103 14.4837 17.8273 14.9159 17.931C15.0888 17.9724 15.2476 18.0591 15.3759 18.1824C15.5042 18.3056 15.5972 18.4608 15.6455 18.632C15.6938 18.8031 15.6956 18.9841 15.6507 19.1562C15.6057 19.3283 15.5157 19.4853 15.3899 19.611L13.7069 21.293C13.4827 21.5171 13.2166 21.695 12.9237 21.8163C12.6308 21.9376 12.3169 22.0001 11.9999 22.0001C11.6828 22.0001 11.3689 21.9376 11.076 21.8163C10.7831 21.695 10.517 21.5171 10.2929 21.293L8.60986 19.61C8.48416 19.4841 8.32717 19.3941 8.15508 19.3492C7.983 19.3042 7.80204 19.306 7.63086 19.3543C7.45968 19.4026 7.30448 19.4957 7.18126 19.6239C7.05804 19.7522 6.97126 19.911 6.92986 20.084C6.82606 20.5161 6.60895 20.9127 6.3009 21.233C5.99284 21.5533 5.60498 21.7857 5.17725 21.9062C4.74952 22.0268 4.29738 22.0312 3.86741 21.9189C3.43743 21.8066 3.04515 21.5818 2.73096 21.2675C2.41678 20.9532 2.19205 20.5608 2.07992 20.1308C1.96779 19.7008 1.9723 19.2487 2.09301 18.821C2.21371 18.3933 2.44623 18.0055 2.76663 17.6976C3.08703 17.3896 3.48373 17.1726 3.91586 17.069C4.08884 17.0276 4.24764 16.9408 4.3759 16.8176C4.50417 16.6943 4.59724 16.5391 4.64554 16.368C4.69384 16.1968 4.6956 16.0158 4.65066 15.8437C4.60572 15.6717 4.51569 15.5147 4.38986 15.389L2.70686 13.707C2.48269 13.4828 2.30486 13.2167 2.18354 12.9238C2.06222 12.6309 1.99978 12.317 1.99978 12C1.99978 11.6829 2.06222 11.369 2.18354 11.0761C2.30486 10.7833 2.48269 10.5171 2.70686 10.293L4.38986 8.60997C4.51557 8.48414 4.67255 8.39411 4.84464 8.34917C5.01673 8.30423 5.19769 8.30599 5.36887 8.35429C5.54005 8.40259 5.69524 8.49566 5.81846 8.62393C5.94168 8.75219 6.02847 8.91099 6.06986 9.08397C6.17367 9.51607 6.39078 9.91269 6.69883 10.233C7.00688 10.5533 7.39475 10.7857 7.82248 10.9062C8.25021 11.0268 8.70234 11.0312 9.13232 10.9189C9.5623 10.8066 9.95458 10.5818 10.2688 10.2675C10.5829 9.95319 10.8077 9.56083 10.9198 9.13082C11.0319 8.7008 11.0274 8.24867 10.9067 7.82098C10.786 7.39329 10.5535 7.0055 10.2331 6.69755C9.91269 6.3896 9.516 6.17263 9.08386 6.06897C8.91089 6.02757 8.75208 5.94079 8.62382 5.81757C8.49556 5.69435 8.40248 5.53915 8.35419 5.36797C8.30589 5.19679 8.30412 5.01583 8.34906 4.84374C8.39401 4.67166 8.48403 4.51467 8.60986 4.38897L10.2929 2.70697C10.517 2.48279 10.7831 2.30497 11.076 2.18364C11.3689 2.06232 11.6828 1.99988 11.9999 1.99988C12.3169 1.99988 12.6308 2.06232 12.9237 2.18364C13.2166 2.30497 13.4827 2.48279 13.7069 2.70697L15.3899 4.38997Z" stroke="black" stroke-width="2" stroke-linecap="round" stroke-linejoin="round"/>
</svg>
