<svg width="24" height="24" viewBox="0 0 24 24" fill="none" xmlns="http://www.w3.org/2000/svg">
<path d="M16.2469 7.76099C17.3699 8.88591 18.0006 10.4105 18.0006 12C18.0006 13.5895 17.3699 15.1141 16.2469 16.239M19.0749 4.93311C20.9478 6.80814 21.9998 9.34993 21.9998 12.0001C21.9998 14.6503 20.9478 17.1921 19.0749 19.0671M4.92487 19.0671C3.05199 17.1921 2 14.6503 2 12.0001C2 9.34993 3.05199 6.80814 4.92487 4.93311M7.75287 16.239C6.62987 15.1141 5.99915 13.5895 5.99915 12C5.99915 10.4105 6.62987 8.88591 7.75287 7.76099M13.9999 12C13.9999 13.1046 13.1044 14 11.9999 14C10.8953 14 9.99988 13.1046 9.99988 12C9.99988 10.8954 10.8953 10 11.9999 10C13.1044 10 13.9999 10.8954 13.9999 12Z" stroke="black" stroke-width="2" stroke-linecap="round" stroke-linejoin="round"/>
</svg>
