<svg width="24" height="24" viewBox="0 0 24 24" fill="none" xmlns="http://www.w3.org/2000/svg">
<path d="M12 12H12.01M14 15.4641C13.3919 15.8152 12.7021 16 12 16C11.2978 16 10.6081 15.8152 9.99997 15.4641L7.52783 19.746C7.45749 19.8678 7.41365 20.0031 7.39917 20.1431C7.38469 20.283 7.3999 20.4244 7.4438 20.5581C7.4877 20.6917 7.55931 20.8146 7.65395 20.9187C7.74859 21.0228 7.86412 21.1057 7.993 21.1621C9.25659 21.7147 10.6208 22 12 22C13.3791 22 14.7434 21.7147 16.0069 21.1621C16.1358 21.1057 16.2514 21.0228 16.346 20.9187C16.4406 20.8146 16.5122 20.6917 16.5561 20.5581C16.6 20.4244 16.6153 20.283 16.6008 20.1431C16.5863 20.0031 16.5425 19.8678 16.4721 19.746L14 15.4641ZM16 12C16 11.2979 15.8151 10.6081 15.4641 10.0001C15.113 9.39202 14.6081 8.88709 14 8.53602L16.472 4.25402C16.5423 4.13206 16.6377 4.02633 16.7517 3.94374C16.8657 3.86116 16.9959 3.80359 17.1337 3.77479C17.2716 3.746 17.4139 3.74664 17.5515 3.77666C17.689 3.80669 17.8187 3.86542 17.932 3.94902C19.0422 4.76708 19.9711 5.8059 20.6605 7.00022C21.3499 8.19454 21.7849 9.51854 21.938 10.889C21.9533 11.0243 21.9409 11.1613 21.9014 11.2915C21.8619 11.4218 21.7963 11.5427 21.7084 11.6467C21.6206 11.7507 21.5125 11.8357 21.3907 11.8964C21.2689 11.9572 21.1359 11.9924 21 12H16ZM8.00002 12C8.00004 11.2979 8.18487 10.6081 8.53594 10.0001C8.88701 9.39202 9.39196 8.88709 10 8.53602L7.52802 4.25402C7.45767 4.13206 7.36236 4.02633 7.24832 3.94374C7.13429 3.86116 7.0041 3.80359 6.86627 3.77479C6.72845 3.746 6.5861 3.74664 6.44854 3.77666C6.31098 3.80669 6.18131 3.86542 6.06802 3.94902C4.95785 4.76708 4.02888 5.8059 3.33948 7.00022C2.65008 8.19454 2.21515 9.51854 2.06202 10.889C2.0467 11.0243 2.05915 11.1613 2.09863 11.2915C2.1381 11.4218 2.20376 11.5427 2.29157 11.6467C2.37939 11.7507 2.48752 11.8357 2.60934 11.8964C2.73116 11.9572 2.8641 11.9924 3.00002 12H8.00002Z" stroke="black" stroke-width="2" stroke-linecap="round" stroke-linejoin="round"/>
</svg>
