<svg width="24" height="24" viewBox="0 0 24 24" fill="none" xmlns="http://www.w3.org/2000/svg">
<path d="M13 22H4C3.46957 22 2.96086 21.7893 2.58579 21.4142C2.21071 21.0391 2 20.5304 2 20C2 19.4696 2.21071 18.9609 2.58579 18.5858C2.96086 18.2107 3.46957 18 4 18H16M13.236 18C13.6201 17.5706 13.8725 17.0398 13.9629 16.4708C14.0534 15.9018 13.9781 15.3189 13.7461 14.7916C13.5141 14.2643 13.1351 13.8149 12.6545 13.4972C12.174 13.1795 11.6121 13.0069 11.036 13M16 9H16.01M16.82 3.93995C17.1299 3.61183 17.5099 3.35787 17.9317 3.197C18.3534 3.03614 18.806 2.9725 19.2557 3.01084C19.7054 3.04919 20.1407 3.18852 20.5291 3.41845C20.9175 3.64839 21.2491 3.96301 21.499 4.33886C21.7489 4.71472 21.9108 5.14212 21.9726 5.58924C22.0344 6.03636 21.9945 6.49165 21.8559 6.92121C21.7173 7.35077 21.4836 7.74352 21.1721 8.0702C20.8606 8.39687 20.4795 8.64905 20.057 8.80795L21.872 11.395C21.9771 11.6332 22.0184 11.8947 21.9917 12.1537C21.9651 12.4127 21.8715 12.6604 21.7202 12.8722C21.5689 13.0841 21.365 13.253 21.1286 13.3622C20.8922 13.4713 20.6314 13.5171 20.372 13.495L17.5 13.042C17.0663 12.9686 16.6218 12.9915 16.1979 13.1091C15.7741 13.2266 15.3813 13.4359 15.0473 13.7222C14.7134 14.0084 14.4464 14.3646 14.2654 14.7655C14.0845 15.1664 13.9938 15.6021 14 16.042M17 4.98807C16.998 4.50004 16.8769 4.01988 16.6473 3.58923C16.4177 3.15857 16.0866 2.79042 15.6825 2.51672C15.2785 2.24301 14.8137 2.07201 14.3287 2.01855C13.8436 1.96508 13.3528 2.03077 12.8988 2.20991C12.4448 2.38905 12.0414 2.67623 11.7236 3.04655C11.4057 3.41687 11.183 3.85915 11.0747 4.33502C10.9665 4.81089 10.976 5.30598 11.1023 5.77736C11.2287 6.24874 11.4682 6.68218 11.8 7.04007C10.8179 6.92709 9.82308 7.02339 8.88094 7.32263C7.9388 7.62187 7.07072 8.11726 6.33384 8.7762C5.59697 9.43514 5.00801 10.2427 4.60575 11.1456C4.20348 12.0486 3.99702 13.0265 3.99997 14.0151C4.00394 15.0733 4.42712 16.0869 5.17683 16.8338C5.92655 17.5807 6.9417 18.0001 7.99997 18.0001" stroke="black" stroke-width="2" stroke-linecap="round" stroke-linejoin="round"/>
</svg>
