<svg width="24" height="24" viewBox="0 0 24 24" fill="none" xmlns="http://www.w3.org/2000/svg">
<path d="M11.9996 6.00006C11.9995 5.60456 11.8821 5.21796 11.6624 4.88915C11.4426 4.56033 11.1303 4.30405 10.7649 4.15271C10.3995 4.00137 9.99742 3.96176 9.60951 4.0389C9.2216 4.11603 8.86528 4.30644 8.58557 4.58606L2.58557 10.5861C2.21063 10.9611 2 11.4697 2 12.0001C2 12.5304 2.21063 13.039 2.58557 13.4141L8.58557 19.4141C8.86528 19.6937 9.2216 19.8841 9.60951 19.9612C9.99742 20.0384 10.3995 19.9988 10.7649 19.8474C11.1303 19.6961 11.4426 19.4398 11.6624 19.111C11.8821 18.7822 11.9995 18.3956 11.9996 18.0001V6.00006Z" stroke="black" stroke-width="2" stroke-linecap="round" stroke-linejoin="round"/>
<path d="M21.9996 6.00006C21.9995 5.60456 21.8821 5.21796 21.6624 4.88915C21.4426 4.56033 21.1303 4.30405 20.7649 4.15271C20.3995 4.00137 19.9974 3.96176 19.6095 4.0389C19.2216 4.11603 18.8653 4.30644 18.5856 4.58606L12.5856 10.5861C12.2106 10.9611 12 11.4697 12 12.0001C12 12.5304 12.2106 13.039 12.5856 13.4141L18.5856 19.4141C18.8653 19.6937 19.2216 19.8841 19.6095 19.9612C19.9974 20.0384 20.3995 19.9988 20.7649 19.8474C21.1303 19.6961 21.4426 19.4398 21.6624 19.111C21.8821 18.7822 21.9995 18.3956 21.9996 18.0001V6.00006Z" stroke="black" stroke-width="2" stroke-linecap="round" stroke-linejoin="round"/>
</svg>
