<svg width="24" height="24" viewBox="0 0 24 24" fill="none" xmlns="http://www.w3.org/2000/svg">
<path d="M10.0002 2V17M7.00024 22C5.93938 22 4.92196 21.5786 4.17182 20.8284C3.42167 20.0783 3.00024 19.0609 3.00024 18C3.00024 17.7348 3.1056 17.4804 3.29314 17.2929C3.48067 17.1054 3.73503 17 4.00024 17H20.0002C20.2655 17 20.5198 17.1054 20.7074 17.2929C20.8949 17.4804 21.0002 17.7348 21.0002 18C21.0002 19.0609 20.5788 20.0783 19.8287 20.8284C19.0785 21.5786 18.0611 22 17.0002 22H7.00024ZM9.15928 2.45997C9.23829 2.33699 9.3433 2.23283 9.46691 2.15482C9.59052 2.07681 9.72973 2.02684 9.87473 2.00844C10.0197 1.99004 10.167 2.00366 10.3062 2.04832C10.4454 2.09299 10.5731 2.16762 10.6803 2.26697L20.6573 11.247C20.8105 11.3808 20.9192 11.5582 20.9689 11.7555C21.0186 11.9527 21.007 12.1604 20.9357 12.3509C20.8643 12.5414 20.7365 12.7056 20.5694 12.8216C20.4022 12.9375 20.2037 12.9998 20.0003 13H4.00028C3.818 13 3.63917 12.9502 3.48312 12.856C3.32707 12.7618 3.19975 12.6267 3.11491 12.4654C3.03007 12.3041 2.99095 12.1226 3.00176 11.9406C3.01258 11.7587 3.07293 11.5831 3.17628 11.433L9.15928 2.45997Z" stroke="black" stroke-width="2" stroke-linecap="round" stroke-linejoin="round"/>
</svg>
