<svg width="24" height="24" viewBox="0 0 24 24" fill="none" xmlns="http://www.w3.org/2000/svg">
<path d="M17 3H19C19.5304 3 20.0391 3.21071 20.4142 3.58579C20.7893 3.96086 21 4.46957 21 5V7M21 17V19C21 19.5304 20.7893 20.0391 20.4142 20.4142C20.0391 20.7893 19.5304 21 19 21H17M3 7V5C3 4.46957 3.21071 3.96086 3.58579 3.58579C3.96086 3.21071 4.46957 3 5 3H7M7 21H5C4.46957 21 3.96086 20.7893 3.58579 20.4142C3.21071 20.0391 3 19.5304 3 19V17M7.82796 13.0699C7.29189 12.5092 6.99388 11.7625 6.99648 10.9868C6.99907 10.211 7.30207 9.46644 7.84188 8.9093C8.38169 8.35215 9.11633 8.02577 9.89162 7.99866C10.6669 7.97155 11.4226 8.24582 12 8.7639C12.5774 8.24582 13.333 7.97155 14.1083 7.99866C14.8836 8.02577 15.6182 8.35215 16.158 8.9093C16.6979 9.46644 17.0009 10.211 17.0034 10.9868C17.006 11.7625 16.708 12.5092 16.172 13.0699L12.725 16.6899C12.6316 16.7881 12.5192 16.8662 12.3946 16.9197C12.2701 16.9731 12.136 17.0006 12.0005 17.0006C11.8649 17.0006 11.7308 16.9731 11.6063 16.9197C11.4818 16.8662 11.3694 16.7881 11.276 16.6899L7.82796 13.0699Z" stroke="black" stroke-width="2" stroke-linecap="round" stroke-linejoin="round"/>
</svg>
