<svg width="24" height="24" viewBox="0 0 24 24" fill="none" xmlns="http://www.w3.org/2000/svg">
<path d="M9 15.0001L16.879 7.12207M21.5599 4.55994C21.6993 4.69924 21.8098 4.86464 21.8853 5.04669C21.9607 5.22874 21.9996 5.42387 21.9996 5.62094C21.9996 5.818 21.9607 6.01313 21.8853 6.19518C21.8098 6.37723 21.6993 6.54264 21.5599 6.68194L21.0899 7.15194C20.5246 7.70125 19.7659 8.00605 18.9777 8.00044C18.1896 7.99482 17.4352 7.67925 16.8779 7.12194C16.5993 6.84335 16.3782 6.51261 16.2274 6.1486C16.0766 5.78459 15.999 5.39444 15.999 5.00044C15.999 4.60643 16.0766 4.21628 16.2274 3.85227C16.3782 3.48826 16.5993 3.15752 16.8779 2.87894L17.3179 2.43894C17.5992 2.15773 17.9806 1.99976 18.3784 1.99976C18.7761 1.99976 19.1576 2.15773 19.4389 2.43894L21.5599 4.55994ZM3 21.9999C2.73478 21.9999 2.48043 21.8945 2.29289 21.707C2.10536 21.5195 2 21.2651 2 20.9999V17.4139C2.00006 17.1487 2.10545 16.8944 2.293 16.7069L5.648 13.3519C5.87398 13.126 6.18045 12.999 6.5 12.999C6.81955 12.999 7.12602 13.126 7.352 13.3519L10.648 16.6479C10.8739 16.8739 11.0009 17.1803 11.0009 17.4999C11.0009 17.8195 10.8739 18.1259 10.648 18.3519L7.293 21.7069C7.10551 21.8944 6.85119 21.9998 6.586 21.9999H3Z" stroke="black" stroke-width="2" stroke-linecap="round" stroke-linejoin="round"/>
</svg>
