<svg width="24" height="24" viewBox="0 0 24 24" fill="none" xmlns="http://www.w3.org/2000/svg">
<path d="M21.9999 11.0001V12.0001C21.9898 14.0184 21.3691 15.9864 20.2196 17.6454C19.0701 19.3044 17.4454 20.5767 15.5592 21.2951C13.6731 22.0135 11.6137 22.1443 9.65175 21.6703C7.68984 21.1964 5.91727 20.1398 4.56707 18.6396C3.21686 17.1394 2.35223 15.2657 2.08684 13.2649C1.82144 11.2641 2.1677 9.22975 3.08011 7.42941C3.99251 5.62906 5.42835 4.14695 7.19885 3.17791C8.96935 2.20887 10.9917 1.79826 12.9999 2.00007M7.99988 14C7.99988 14 9.49988 16 11.9999 16C14.4999 16 15.9999 14 15.9999 14M8.99988 9H9.00988M14.9999 9H15.0099M15.9999 5H21.9999M18.9999 2V8" stroke="black" stroke-width="2" stroke-linecap="round" stroke-linejoin="round"/>
</svg>
