<svg width="24" height="24" viewBox="0 0 24 24" fill="none" xmlns="http://www.w3.org/2000/svg">
<path d="M16.9995 13.4399L4.44147 17.0819C3.98243 17.2174 3.58721 17.513 3.32757 17.9151C3.06793 18.3172 2.96108 18.799 3.02642 19.2732C3.09177 19.7473 3.32498 20.1823 3.68371 20.4991C4.04244 20.8159 4.50289 20.9936 4.98147 20.9999H18.9995C19.4813 21.0003 19.9471 20.8266 20.3112 20.5109C20.6752 20.1953 20.9131 19.7588 20.981 19.2817C21.0488 18.8046 20.9422 18.3191 20.6807 17.9144C20.4192 17.5097 20.0203 17.213 19.5575 17.0789L18.4425 16.7589C18.0261 16.6382 17.6603 16.3855 17.4001 16.0388C17.1398 15.6922 16.9992 15.2704 16.9995 14.8369V7.65991M6.99949 10.56L19.5575 6.918C20.0165 6.7825 20.4117 6.48687 20.6714 6.08481C20.931 5.68274 21.0379 5.20089 20.9725 4.72676C20.9072 4.25263 20.674 3.81765 20.3152 3.50081C19.9565 3.18397 19.4961 3.00628 19.0175 3H4.99949C4.51763 2.99965 4.05184 3.17329 3.68779 3.48897C3.32373 3.80465 3.08589 4.24116 3.018 4.71822C2.95011 5.19527 3.05674 5.6808 3.31827 6.08551C3.57981 6.49023 3.97866 6.78691 4.44149 6.921L5.55649 7.241C5.97281 7.36172 6.33864 7.61443 6.59889 7.96107C6.85915 8.30772 6.99974 8.72953 6.99949 9.163V16.341" stroke="black" stroke-width="2" stroke-linecap="round" stroke-linejoin="round"/>
</svg>
