<svg width="24" height="24" viewBox="0 0 24 24" fill="none" xmlns="http://www.w3.org/2000/svg">
<path d="M13.7697 3.04293C12.5905 2.98146 11.4089 2.98146 10.2297 3.04293M13.7707 20.9561C12.5912 21.0198 11.4092 21.0201 10.2297 20.9571M20.1797 17.74C19.6697 18.89 18.8897 19.67 17.7407 20.18M20.1797 6.25904C19.6697 5.11104 18.8887 4.33004 17.7397 3.82104M20.9567 10.23C21.0201 11.4091 21.0201 12.5908 20.9567 13.77M3.0427 10.23C2.98153 11.4095 2.98186 12.5915 3.0437 13.771M6.2597 20.179C5.1097 19.671 4.3297 18.889 3.8197 17.741M6.2597 3.82007C5.1107 4.33007 4.3297 5.11107 3.8197 6.26007" stroke="black" stroke-width="2" stroke-linecap="round" stroke-linejoin="round"/>
</svg>
