<svg width="24" height="24" viewBox="0 0 24 24" fill="none" xmlns="http://www.w3.org/2000/svg">
<path d="M21.0002 20V4M13.9712 4.28502C14.2747 4.10292 14.6211 4.00462 14.975 4.00016C15.3289 3.99569 15.6776 4.08522 15.9856 4.2596C16.2936 4.43398 16.5498 4.68697 16.728 4.99274C16.9063 5.2985 17.0002 5.64609 17.0002 6.00002V18C17.0002 18.3539 16.9063 18.7015 16.728 19.0073C16.5498 19.3131 16.2936 19.5661 15.9856 19.7404C15.6776 19.9148 15.3289 20.0043 14.975 19.9999C14.6211 19.9954 14.2747 19.8971 13.9712 19.715L3.9742 13.717C3.67743 13.5397 3.43169 13.2885 3.26095 12.9879C3.09021 12.6873 3.0003 12.3476 3 12.0019C2.9997 11.6562 3.08901 11.3163 3.25923 11.0154C3.42944 10.7145 3.67474 10.4628 3.9712 10.285L13.9712 4.28502Z" stroke="black" stroke-width="2" stroke-linecap="round" stroke-linejoin="round"/>
</svg>
