<svg width="24" height="24" viewBox="0 0 24 24" fill="none" xmlns="http://www.w3.org/2000/svg">
<path d="M12.0002 2V4M16.0002 12C16.0002 10.9391 15.5788 9.92172 14.8287 9.17157C14.0785 8.42143 13.0611 8 12.0002 8M19.0003 5L17.7443 6.256M20.0002 12H22.0002M14.8372 16.3851C14.5909 17.4242 14.0716 18.3788 13.3331 19.1503C12.5946 19.9217 11.6636 20.482 10.6361 20.7734C9.60868 21.0648 8.52209 21.0767 7.48852 20.8078C6.45496 20.539 5.51189 19.9991 4.75668 19.244C4.00146 18.4889 3.46148 17.5459 3.19248 16.5124C2.92348 15.4789 2.93521 14.3923 3.22646 13.3648C3.5177 12.3373 4.07792 11.4062 4.84925 10.6676C5.62059 9.92893 6.5751 9.40956 7.61422 9.16307C8.23822 9.01607 8.58422 9.82307 8.32922 10.4111C8.0109 11.147 7.92108 11.9616 8.07142 12.7491C8.22175 13.5367 8.60531 14.2609 9.17232 14.8278C9.73933 15.3947 10.4636 15.7781 11.2512 15.9283C12.0388 16.0785 12.8534 15.9885 13.5892 15.6701C14.1782 15.4151 14.9852 15.7601 14.8372 16.3851Z" stroke="black" stroke-width="2" stroke-linecap="round" stroke-linejoin="round"/>
</svg>
