<svg width="24" height="24" viewBox="0 0 24 24" fill="none" xmlns="http://www.w3.org/2000/svg">
<path d="M10.0654 12.4929L3.88539 13.8109C3.64551 13.863 3.39478 13.8185 3.18743 13.6871C2.98008 13.5558 2.83278 13.348 2.77739 13.1089L2.24039 10.9589C2.17726 10.6999 2.21311 10.4266 2.34093 10.1926C2.46874 9.9586 2.67931 9.78076 2.93139 9.69391L16.4354 5.25391M13.5604 11.7472L17.8924 10.8232M16.0004 21L12.8954 14.79M6.15839 8.63281L7.27239 13.0888M8.00037 21L11.1054 14.79M16.4854 5.94012C16.3568 5.4256 16.4379 4.88109 16.7107 4.42634C16.9836 3.97158 17.4259 3.64382 17.9404 3.51512L19.0304 3.24312C19.2875 3.17898 19.5596 3.21951 19.7868 3.35583C20.0141 3.49214 20.1779 3.71308 20.2424 3.97012L21.7574 10.0301C21.8218 10.2874 21.7814 10.5597 21.6451 10.7872C21.5087 11.0147 21.2876 11.1787 21.0304 11.2431L19.9404 11.5151C19.4259 11.6437 18.8813 11.5626 18.4266 11.2897C17.9718 11.0169 17.6441 10.5746 17.5154 10.0601L16.4854 5.94012ZM14.0004 13C14.0004 14.1046 13.1049 15 12.0004 15C10.8958 15 10.0004 14.1046 10.0004 13C10.0004 11.8954 10.8958 11 12.0004 11C13.1049 11 14.0004 11.8954 14.0004 13Z" stroke="black" stroke-width="2" stroke-linecap="round" stroke-linejoin="round"/>
</svg>
