<svg width="24" height="24" viewBox="0 0 24 24" fill="none" xmlns="http://www.w3.org/2000/svg">
<path d="M10.0005 15H14.0005M14.8176 10.9948L13.8466 9.54484L14.8806 8.31284C15.1586 7.98937 15.3259 7.58548 15.3581 7.16016C15.3903 6.73483 15.2857 6.31036 15.0596 5.94871C14.8334 5.58707 14.4975 5.30721 14.101 5.14999C13.7045 4.99278 13.2681 4.96644 12.8556 5.07484L11.0356 5.43884L9.91058 3.88484C9.689 3.55559 9.37448 3.2997 9.00703 3.14974C8.63958 2.99978 8.23583 2.96253 7.84714 3.04273C7.45846 3.12293 7.10243 3.31696 6.82435 3.60012C6.54627 3.88328 6.35873 4.24277 6.28558 4.63284L6.14158 6.54984L4.41658 6.97584C4.02363 7.09612 3.67727 7.33453 3.42461 7.65863C3.17196 7.98273 3.02527 8.3768 3.00451 8.78722C2.98375 9.19764 3.08992 9.6045 3.30858 9.95244C3.52724 10.3004 3.84777 10.5725 4.22658 10.7318L4.88358 11.0018M18.8225 10.9951L21.0825 5.61507C21.1341 5.49215 21.1606 5.36014 21.1604 5.22683C21.1603 5.09351 21.1335 4.96158 21.0816 4.83878C21.0297 4.71598 20.9537 4.60479 20.8582 4.51177C20.7628 4.41874 20.6496 4.34574 20.5255 4.29707L16.9545 2.90007C16.7135 2.80594 16.4454 2.80888 16.2065 2.90827C15.9677 3.00767 15.7766 3.19577 15.6735 3.43307L14.7495 5.55507M4.00051 12.006C3.99972 11.8747 4.0248 11.7445 4.07433 11.6229C4.12385 11.5012 4.19685 11.3905 4.28915 11.2971C4.38145 11.2037 4.49125 11.1294 4.61228 11.0784C4.7333 11.0274 4.86318 11.0008 4.99451 11H19.0005C19.2657 11 19.5201 11.1054 19.7076 11.2929C19.8951 11.4804 20.0005 11.7348 20.0005 12V19C20.0005 19.5304 19.7898 20.0391 19.4147 20.4142C19.0396 20.7893 18.5309 21 18.0005 21H6.00051C5.47007 21 4.96137 20.7893 4.58629 20.4142C4.21122 20.0391 4.00051 19.5304 4.00051 19V12.006Z" stroke="black" stroke-width="2" stroke-linecap="round" stroke-linejoin="round"/>
</svg>
