<svg width="24" height="24" viewBox="0 0 24 24" fill="none" xmlns="http://www.w3.org/2000/svg">
<path d="M16.0504 10.9658C15.5869 11.286 14.9781 11.5466 14.2741 11.7263C13.5701 11.906 12.7909 11.9997 12.0004 11.9997C11.21 11.9997 10.4308 11.906 9.72676 11.7263C9.02275 11.5466 8.41399 11.286 7.95044 10.9658M16.9235 14.049L21.4035 16.089C21.5813 16.1671 21.7326 16.2951 21.8388 16.4576C21.945 16.6201 22.0016 16.8101 22.0017 17.0042C22.0018 17.1984 21.9454 17.3883 21.8394 17.551C21.7333 17.7136 21.5822 17.8418 21.4045 17.92L12.8305 21.82C12.57 21.9389 12.2869 22.0004 12.0005 22.0004C11.7142 22.0004 11.4311 21.9389 11.1705 21.82L2.59655 17.91C2.4191 17.8318 2.26823 17.7036 2.16231 17.5412C2.05639 17.3787 2 17.189 2 16.995C2 16.8011 2.05639 16.6114 2.16231 16.4489C2.26823 16.2864 2.4191 16.1583 2.59655 16.08L7.08055 14.04M9.19458 6.56982C10.0224 6.85034 10.9995 7.00028 11.9996 7.00028C12.9996 7.00028 13.9767 6.85034 14.8046 6.56982M16.9495 14.14C17.0505 14.4945 16.9981 14.8558 16.7956 15.1993C16.5932 15.5428 16.2456 15.8605 15.7762 16.131C15.3068 16.4015 14.7267 16.6184 14.0752 16.7671C13.4236 16.9158 12.7157 16.9927 11.9995 16.9927C11.2833 16.9927 10.5755 16.9158 9.92387 16.7671C9.27229 16.6184 8.69219 16.4015 8.22283 16.131C7.75347 15.8605 7.40581 15.5428 7.20338 15.1993C7.00095 14.8558 6.94848 14.4945 7.04951 14.14L10.0635 3.50002C10.174 3.07026 10.4243 2.68945 10.775 2.41753C11.1256 2.14562 11.5568 1.99805 12.0005 1.99805C12.4443 1.99805 12.8754 2.14562 13.2261 2.41753C13.5767 2.68945 13.827 3.07026 13.9375 3.50002L16.9495 14.14Z" stroke="black" stroke-width="2" stroke-linecap="round" stroke-linejoin="round"/>
</svg>
