<svg width="24" height="24" viewBox="0 0 24 24" fill="none" xmlns="http://www.w3.org/2000/svg">
<path d="M13.7299 4.00012C13.5541 3.69704 13.3017 3.44547 12.9981 3.27059C12.6945 3.09571 12.3503 3.00366 11.9999 3.00366C11.6495 3.00366 11.3053 3.09571 11.0017 3.27059C10.6981 3.44547 10.4457 3.69704 10.2699 4.00012L2.2699 18.0001C2.09445 18.304 2.00204 18.6487 2.00195 18.9996C2.00186 19.3505 2.0941 19.6953 2.26939 19.9992C2.44468 20.3032 2.69687 20.5557 3.00062 20.7314C3.30437 20.9071 3.649 20.9998 3.9999 21.0001H19.9999C20.3508 20.9998 20.6954 20.9071 20.9992 20.7314C21.3029 20.5557 21.5551 20.3032 21.7304 19.9992C21.9057 19.6953 21.9979 19.3505 21.9979 18.9996C21.9978 18.6487 21.9054 18.304 21.7299 18.0001L13.7299 4.00012Z" stroke="black" stroke-width="2" stroke-linecap="round" stroke-linejoin="round"/>
</svg>
