<svg width="24" height="24" viewBox="0 0 24 24" fill="none" xmlns="http://www.w3.org/2000/svg">
<path d="M10.1696 4.19297C10.3265 3.83687 10.5839 3.53429 10.9102 3.3223C11.2366 3.11032 11.6177 2.99814 12.0068 2.99952C12.396 3.0009 12.7762 3.11578 13.1011 3.33007C13.4259 3.54437 13.6812 3.84877 13.8356 4.20597M13.9995 21H15.9995M15.8735 7.74316L16.8735 9.47516M18.8485 12.9521L19.8485 14.6841M21.8235 18.1802C21.9617 18.4858 22.0208 18.8212 21.9954 19.1556C21.97 19.49 21.861 19.8127 21.6782 20.0939C21.4955 20.3752 21.245 20.6059 20.9497 20.765C20.6544 20.924 20.3239 21.0063 19.9885 21.0042M4.02355 21.0001C3.68587 21.0041 3.35267 20.9225 3.05503 20.7629C2.75739 20.6034 2.505 20.3711 2.3214 20.0876C2.1378 19.8042 2.02896 19.4788 2.00503 19.142C1.9811 18.8051 2.04286 18.4677 2.18455 18.1611M5.1355 12.9521L4.1355 14.6841M7.99951 21H9.99951M8.10156 7.74316L7.10156 9.47516" stroke="black" stroke-width="2" stroke-linecap="round" stroke-linejoin="round"/>
</svg>
