<svg width="24" height="24" viewBox="0 0 24 24" fill="none" xmlns="http://www.w3.org/2000/svg">
<path d="M14.0001 19V7C14.0001 6.46957 13.7894 5.96086 13.4143 5.58579C13.0393 5.21071 12.5306 5 12.0001 5H9.00012M15.0001 19H9.00012M15.0001 19C15.0001 20.1046 15.8956 21 17.0001 21C18.1047 21 19.0001 20.1046 19.0001 19M15.0001 19C15.0001 17.8954 15.8956 17 17.0001 17C18.1047 17 19.0001 17.8954 19.0001 19M9.00012 19C9.00012 20.1046 8.10469 21 7.00012 21C5.89555 21 5.00012 20.1046 5.00012 19M9.00012 19C9.00012 17.8954 8.10469 17 7.00012 17C5.89555 17 5.00012 17.8954 5.00012 19M19.0001 19H21.0001C21.2653 19 21.5197 18.8946 21.7072 18.7071C21.8948 18.5196 22.0001 18.2652 22.0001 18V14.35C21.9988 14.1244 21.9213 13.9059 21.7801 13.73L18.3001 9.38C18.207 9.26215 18.0885 9.16679 17.9535 9.101C17.8184 9.03521 17.6703 9.00069 17.5201 9H14.0001M2.00012 13V18C2.00012 18.2652 2.10548 18.5196 2.29302 18.7071C2.48055 18.8946 2.73491 19 3.00012 19H5.00012M4.00017 3L2.15017 5.15C2.07554 5.21826 2.02362 5.30774 2.00137 5.4064C1.97913 5.50506 1.98765 5.60817 2.02577 5.70185C2.0639 5.79553 2.1298 5.87528 2.21462 5.93037C2.29943 5.98546 2.39909 6.01325 2.50017 6.01H4.65017C4.75917 5.98449 4.8737 5.99873 4.97314 6.05014C5.07258 6.10156 5.1504 6.18678 5.1926 6.29047C5.23479 6.39415 5.2386 6.5095 5.20332 6.61574C5.16805 6.72198 5.09601 6.81214 5.00017 6.87L3.00017 9.02" stroke="black" stroke-width="2" stroke-linecap="round" stroke-linejoin="round"/>
</svg>
